<?xml version="1.0" standalone="no"?>
<!DOCTYPE svg PUBLIC "-//W3C//DTD SVG 20010904//EN"
 "http://www.w3.org/TR/2001/REC-SVG-20010904/DTD/svg10.dtd">
<svg version="1.0" xmlns="http://www.w3.org/2000/svg"
 width="800.000000pt" height="800.000000pt" viewBox="0 0 800.000000 800.000000"
 preserveAspectRatio="xMidYMid meet">

<g transform="translate(0.000000,800.000000) scale(0.100000,-0.100000)"
fill="#000000" stroke="none">
<path d="M0 4000 l0 -4000 4000 0 4000 0 0 4000 0 4000 -4000 0 -4000 0 0
-4000z m4410 3279 c63 -6 119 -15 123 -19 9 -8 -128 -4 -141 4 -16 10 -53 -6
-48 -21 5 -11 -14 -12 -116 -7 l-121 7 30 -44 c43 -63 104 -176 119 -218 6
-20 18 -39 26 -42 7 -4 63 -17 125 -30 61 -13 110 -26 108 -30 -3 -3 7 -4 20
-1 14 2 25 0 25 -7 0 -6 13 -9 33 -6 24 4 27 3 12 -4 -22 -10 -115 -3 -129 10
-12 11 -37 -1 -29 -15 4 -6 0 -6 -9 2 -10 8 -19 9 -22 4 -3 -6 1 -13 9 -16 13
-5 9 -15 -18 -55 -19 -27 -43 -70 -53 -95 -11 -25 -23 -46 -27 -46 -12 0 -67
-43 -67 -52 0 -5 3 -7 8 -4 4 2 67 -2 139 -9 195 -21 501 -93 488 -115 -4 -6
-1 -10 6 -10 7 0 10 -2 8 -5 -3 -2 -36 4 -73 15 -206 59 -626 120 -626 91 0
-5 -2 -16 -5 -24 -5 -11 18 -16 112 -26 215 -23 479 -88 676 -168 129 -52 328
-153 322 -163 -3 -5 0 -12 6 -16 8 -4 9 -3 5 4 -13 21 9 13 79 -31 205 -126
655 -520 803 -702 72 -90 173 -247 229 -360 39 -77 125 -308 151 -405 27 -99
55 -283 50 -320 -4 -29 -3 -29 31 -24 20 3 39 8 42 10 8 4 -14 142 -42 267
-64 291 -226 617 -430 872 -142 178 -442 456 -661 614 -48 35 -85 67 -82 72 3
5 -3 6 -12 2 -14 -5 -16 -3 -10 13 6 15 5 16 -5 7 -10 -10 -16 -9 -31 4 -10 9
-18 22 -18 29 0 7 -4 16 -10 19 -6 4 -7 -1 -4 -12 3 -10 2 -14 -3 -8 -10 12
-45 31 -196 107 -65 32 -115 63 -112 68 3 6 12 10 18 10 8 0 7 -3 -2 -9 -11
-7 -9 -10 8 -16 11 -3 25 -4 30 0 14 8 181 -77 174 -88 -3 -6 -1 -7 5 -3 6 3
36 -9 66 -29 30 -19 63 -36 73 -36 17 -1 17 -2 1 -6 -10 -2 -18 -11 -18 -20 0
-12 3 -13 15 -3 17 14 8 19 170 -99 161 -117 221 -166 359 -295 60 -55 113
-101 118 -101 4 0 38 26 74 59 36 32 67 56 70 54 2 -3 -28 -35 -66 -73 -68
-65 -70 -68 -54 -87 10 -10 21 -17 25 -16 4 2 41 36 83 76 l77 73 -53 61 c-29
34 -69 78 -88 97 l-34 34 -32 -37 c-18 -21 -35 -33 -38 -27 -4 5 7 26 24 45
34 39 31 60 -12 90 -12 9 -19 16 -14 16 4 0 21 -11 38 -25 28 -24 53 -33 46
-17 -3 7 -203 199 -258 249 -58 51 -75 67 -60 56 24 -19 35 -16 19 4 -12 15
19 -6 70 -49 11 -9 18 -6 35 14 55 67 150 168 157 168 20 0 6 -26 -39 -74 -26
-28 -59 -66 -74 -84 -16 -19 -33 -30 -39 -26 -8 4 -7 0 1 -15 18 -34 37 -36
71 -7 17 14 36 23 41 20 6 -4 8 -3 5 3 -4 5 20 37 53 69 33 32 59 62 60 65 0
4 -26 28 -57 53 -58 48 -94 57 -99 23 -3 -25 -34 -58 -47 -50 -5 3 -7 2 -4 -4
7 -12 -56 -76 -78 -79 -8 -1 11 27 42 62 31 35 60 61 66 57 6 -3 7 -1 4 4 -4
6 2 18 13 28 19 17 19 19 4 37 -25 27 -37 23 -79 -24 -83 -95 -118 -130 -134
-133 -9 -2 -18 -4 -20 -4 -2 -1 2 -9 10 -18 11 -16 11 -16 -7 0 -17 16 -17 19
-3 27 8 5 53 50 99 101 80 87 83 92 64 106 -10 8 -18 18 -17 22 1 4 -11 7 -27
6 -16 -1 -27 1 -25 5 5 8 -49 50 -65 50 -5 0 -10 4 -10 8 0 4 -20 21 -45 36
-25 16 -45 30 -45 31 0 1 9 1 19 0 11 -1 28 -12 39 -25 11 -14 31 -25 49 -26
17 -1 40 -7 52 -13 11 -7 21 -9 21 -6 0 12 -6 20 -13 17 -15 -5 -48 19 -41 30
5 7 2 9 -9 5 -10 -4 -16 -2 -14 5 1 7 -5 12 -13 13 -8 1 -14 7 -12 13 1 7 -4
12 -12 10 -8 -2 -22 6 -30 17 -9 12 -15 15 -16 7 0 -10 -3 -10 -14 0 -9 9 -10
15 -3 20 16 10 292 -180 452 -311 395 -323 696 -703 935 -1180 119 -238 207
-489 255 -725 27 -135 45 -305 33 -312 -4 -3 -42 0 -84 5 -93 13 -154 14 -154
2 0 -40 6 -41 194 -41 99 0 187 -4 194 -9 8 -5 12 -17 10 -27 -3 -16 -14 -19
-73 -22 l-70 -3 -2 -157 c-2 -164 -14 -289 -39 -432 -36 -201 -121 -489 -211
-720 -46 -116 -158 -350 -169 -350 -3 0 -3 4 0 9 3 5 -1 11 -9 15 -8 3 -15 1
-15 -4 0 -6 -7 -10 -15 -10 -8 0 -15 -7 -15 -15 0 -8 -4 -15 -10 -15 -5 0 2
22 16 50 14 27 26 50 28 50 1 0 2 -10 2 -22 -1 -14 6 -24 16 -26 14 -3 16 1
11 14 -4 12 -3 15 5 10 8 -5 12 0 12 13 0 12 5 21 10 21 16 0 11 17 -7 24 -9
4 -20 1 -25 -6 -9 -15 -11 -6 -2 16 3 9 10 13 15 10 5 -3 6 1 3 9 -2 7 8 43
25 78 33 72 81 186 81 193 0 2 -32 12 -71 21 -41 10 -67 21 -62 26 6 6 34 1
68 -11 32 -11 61 -20 65 -20 10 0 32 69 25 80 -3 5 -2 10 3 10 11 0 52 113 52
141 0 9 7 30 15 45 8 16 15 37 15 47 0 10 5 27 11 38 5 11 12 32 14 47 2 15
13 60 24 101 11 41 18 78 15 82 -2 4 -39 10 -82 14 -45 4 -84 14 -94 22 -16
14 -17 13 -12 -12 2 -14 1 -24 -4 -21 -5 3 -14 -11 -20 -32 -10 -34 -28 -140
-25 -152 1 -3 -5 -11 -13 -18 -17 -16 -17 -10 1 58 23 87 45 265 48 390 l2
115 -60 3 c-33 2 -63 9 -67 15 -6 9 -10 9 -16 0 -5 -8 -57 -13 -169 -15 -139
-3 -160 -1 -156 12 3 10 0 9 -11 -4 -14 -18 -15 -18 -13 3 1 21 5 21 194 21
l193 0 0 129 0 129 -47 -3 -48 -2 0 -81 c0 -45 -3 -82 -7 -82 -23 0 -38 16
-38 40 0 15 -3 48 -6 74 l-7 46 -132 0 c-126 0 -133 -1 -148 -23 -23 -34 -29
-15 -8 25 16 32 17 49 10 130 -21 249 -74 451 -178 681 l-30 67 -79 0 c-64 0
-79 3 -79 15 0 9 4 12 9 7 11 -11 58 -3 58 9 0 5 11 9 24 9 13 0 26 7 29 14 4
10 1 13 -7 10 -8 -3 -17 -1 -21 5 -3 6 1 11 9 11 9 0 16 3 16 6 0 15 -142 210
-228 312 -73 86 -106 118 -144 136 -26 13 -51 19 -54 14 -9 -14 -21 0 -27 30
-4 20 -33 54 -90 106 -110 101 -148 128 -170 122 -15 -4 -16 -2 -6 10 7 9 8
14 2 12 -6 -2 -36 18 -66 44 l-55 48 -27 -31 c-24 -29 -27 -30 -44 -15 -10 9
-22 16 -28 16 -5 0 -20 9 -33 20 -24 21 -50 27 -50 11 0 -5 -10 -11 -22 -14
l-23 -6 23 16 c12 8 22 22 22 29 0 17 16 18 27 2 10 -16 86 -58 104 -58 8 0
20 9 27 21 11 18 11 24 -5 41 -26 29 -71 50 -93 43 -12 -4 -22 0 -28 12 -11
21 -138 97 -227 137 -33 15 -77 36 -97 47 -40 22 -254 93 -306 103 -18 3 -31
2 -28 -3 3 -4 -6 -6 -20 -3 -20 3 -23 7 -12 14 9 6 6 7 -10 3 -19 -5 -63 0
-159 20 -15 4 -20 10 -16 24 4 16 -5 20 -77 30 -44 7 -125 12 -180 12 -90 0
-99 1 -105 19 -5 15 -15 20 -38 19 -18 -1 -24 -3 -14 -6 22 -6 25 -73 2 -73
-16 0 -31 -43 -21 -59 10 -15 -5 -241 -15 -235 -5 3 -9 -8 -9 -25 0 -18 -5
-28 -12 -27 -33 5 -38 18 -38 102 0 100 24 92 -210 64 -205 -24 -301 -42 -432
-81 -102 -30 -415 -153 -432 -169 -5 -5 1 -20 13 -36 11 -15 21 -30 21 -33 0
-10 -39 -51 -49 -51 -4 0 -17 18 -30 40 -12 22 -27 40 -32 40 -15 0 -101 -61
-97 -68 2 -4 12 -24 23 -44 18 -36 18 -38 1 -57 -18 -19 -17 -21 5 -58 13 -21
38 -59 56 -84 37 -52 40 -61 18 -52 -9 3 -26 -3 -38 -13 -22 -19 -22 -19 -4 2
9 11 17 25 17 31 0 21 -161 228 -176 227 -8 -1 -14 2 -14 7 0 13 107 90 160
116 395 191 628 265 940 297 30 3 100 11 154 16 55 6 102 12 104 15 3 2 7 48
10 101 4 75 2 98 -9 105 -22 14 -88 0 -149 -30 -69 -36 -179 -48 -239 -27 -46
15 -68 13 -281 -35 -311 -69 -550 -176 -807 -362 -47 -34 -107 -77 -134 -94
-53 -36 -58 -45 -31 -65 9 -7 18 -20 20 -28 2 -8 9 -22 16 -30 31 -36 27 -42
-9 -12 l-38 34 -105 -105 c-99 -100 -105 -107 -94 -131 9 -20 8 -27 -4 -37 -9
-7 -22 -26 -31 -43 -21 -43 -54 -77 -66 -69 -6 4 -7 1 -3 -6 5 -7 1 -20 -7
-29 -19 -21 -107 -170 -107 -180 0 -5 15 -14 34 -20 55 -20 63 -37 36 -74 -21
-28 -21 -31 -4 -24 14 5 16 4 8 -4 -20 -20 -56 6 -52 38 2 19 -2 28 -14 30
-13 3 -36 -35 -101 -165 -46 -92 -91 -197 -101 -233 -10 -36 -24 -85 -32 -110
-28 -98 -46 -185 -69 -337 -20 -138 -31 -189 -25 -114 1 14 -2 21 -9 17 -7 -5
-9 4 -5 26 4 25 3 30 -5 18 -6 -8 -10 -39 -9 -67 1 -29 -2 -56 -7 -60 -12 -12
2 201 20 297 27 143 82 348 130 489 55 161 63 177 78 162 21 -21 37 -10 64 44
26 52 26 55 9 74 -18 19 -17 22 14 73 83 136 162 239 200 260 39 22 51 50 29
63 -5 4 -20 -1 -32 -12 l-22 -18 19 23 c11 12 16 25 12 29 -8 9 -9 8 -104
-114 -44 -56 -83 -99 -87 -95 -5 4 -5 1 -1 -5 4 -8 -4 -24 -21 -40 -15 -14
-21 -23 -13 -18 12 7 12 5 -1 -11 -9 -10 -19 -27 -22 -37 -4 -10 -11 -16 -16
-13 -5 3 -12 -1 -15 -10 -4 -10 -2 -13 7 -8 8 5 7 2 -2 -9 -13 -16 -14 -16
-26 0 -7 10 -11 22 -7 28 101 175 381 491 567 642 202 163 471 320 664 387
199 70 489 135 635 145 102 6 120 15 91 44 -10 10 -27 14 -48 11 -279 -39
-407 -66 -591 -124 -67 -22 -159 -57 -204 -80 -45 -22 -85 -40 -89 -40 -3 0
-61 -32 -128 -70 -383 -219 -721 -537 -950 -894 -73 -115 -165 -290 -205 -391
-76 -190 -158 -522 -175 -702 -4 -40 -10 -73 -14 -73 -4 0 -16 -6 -26 -14 -15
-10 -17 -17 -8 -27 6 -8 16 -83 22 -168 11 -149 16 -195 47 -388 23 -147 108
-374 196 -525 18 -31 51 -87 72 -125 75 -131 205 -319 288 -418 191 -226 562
-542 799 -682 48 -28 114 -70 147 -92 73 -50 196 -116 277 -148 136 -54 404
-106 605 -118 58 -3 115 -8 127 -11 13 -2 32 5 48 19 l27 23 -163 12 c-337 24
-563 83 -826 216 -92 47 -136 75 -116 76 6 0 15 -5 18 -10 3 -6 13 -10 22 -10
8 0 28 -9 44 -21 16 -11 29 -18 29 -15 0 3 26 -6 58 -20 231 -104 535 -172
845 -189 l127 -7 0 31 0 31 -70 0 c-286 0 -658 93 -972 244 -65 31 -122 56
-127 56 -5 0 -16 9 -23 19 -8 11 -54 46 -104 79 -213 140 -557 482 -680 677
-11 16 -13 26 -6 21 28 -17 22 28 -14 100 -36 71 -41 75 -66 70 -18 -3 -28 -1
-28 6 0 6 -2 9 -5 6 -5 -5 22 -60 49 -99 6 -8 -1 -2 -15 13 -33 37 -92 138
-140 240 -21 45 -46 89 -56 100 -18 17 -22 18 -63 3 -24 -9 -51 -22 -60 -30
-20 -18 -30 -10 -30 21 0 12 -6 24 -13 27 -7 3 -18 20 -24 38 -6 19 -25 67
-42 108 -29 68 -70 216 -85 301 -3 19 -10 89 -16 155 -5 66 -14 121 -20 123
-5 2 -10 8 -10 13 0 4 6 6 13 3 11 -4 15 34 20 194 14 401 83 690 247 1036 31
66 45 85 52 75 7 -10 8 -8 3 7 -9 33 19 50 50 30 20 -13 23 -20 16 -39 -5 -12
-15 -21 -23 -19 -10 1 -21 -14 -32 -43 -10 -25 -22 -45 -27 -45 -5 0 -8 -3 -8
-7 4 -25 -5 -43 -33 -73 -18 -18 -27 -30 -21 -26 9 5 11 2 7 -8 -3 -9 -11 -13
-17 -9 -6 4 -7 1 -2 -6 4 -7 3 -23 -2 -34 -6 -12 -18 -40 -28 -62 -10 -22 -18
-43 -17 -47 1 -5 -2 -8 -7 -8 -9 0 -18 -31 -27 -85 -2 -11 -18 -74 -35 -140
-28 -108 -31 -136 -32 -280 l-2 -160 45 -10 c25 -5 51 -14 58 -19 20 -12 28 2
9 17 -15 11 -15 14 0 32 13 16 15 17 10 3 -5 -15 -1 -18 23 -18 26 0 30 -3 30
-29 0 -16 -6 -32 -12 -35 -9 -3 -8 -8 4 -16 14 -8 18 -25 18 -66 0 -49 -4 -58
-31 -84 -29 -26 -31 -31 -24 -77 8 -61 45 -107 78 -98 19 5 20 5 4 -5 -9 -6
-21 -9 -26 -6 -4 3 -6 -6 -3 -19 2 -14 8 -25 13 -25 5 0 6 8 3 18 -4 10 -3 13
3 6 4 -6 18 -13 30 -16 32 -8 55 21 47 60 -4 21 -3 32 5 32 6 0 11 -3 11 -7 0
-5 24 -8 52 -7 52 1 52 1 6 -3 -44 -4 -47 -6 -46 -32 1 -42 -8 -50 -64 -57
l-51 -7 7 -66 c7 -75 9 -86 24 -122 6 -15 16 -45 22 -68 32 -119 157 -389 249
-539 25 -41 28 -42 65 -37 l39 6 -6 -53 c-5 -52 -4 -54 56 -133 112 -147 205
-251 333 -374 122 -116 128 -120 146 -104 14 13 18 13 14 2 -6 -14 86 -89 110
-89 6 0 9 -10 7 -23 -4 -18 4 -31 27 -50 17 -15 37 -27 44 -27 16 0 51 -38 43
-46 -3 -3 -15 0 -27 6 -12 6 -24 10 -26 7 -3 -2 33 -24 78 -47 46 -24 78 -37
71 -29 -9 12 -4 14 33 15 24 1 44 -3 44 -8 0 -5 5 -6 11 -3 6 5 4 11 -7 19
-16 12 -15 14 9 18 19 4 28 0 32 -11 3 -9 17 -24 32 -33 16 -10 23 -18 16 -18
-6 0 -15 5 -18 10 -4 6 -11 8 -16 5 -5 -4 -9 -1 -9 6 0 10 -3 10 -11 2 -6 -6
-8 -16 -4 -22 16 -26 223 -111 390 -160 101 -29 294 -59 438 -67 l124 -7 5 26
c3 15 3 29 0 32 -3 3 -46 5 -96 5 -161 0 -473 57 -662 120 -64 21 -119 42
-122 45 -10 10 46 -5 103 -27 108 -42 440 -104 467 -87 20 13 50 10 83 -7 38
-20 225 -33 225 -15 0 6 9 20 20 31 11 11 17 26 14 35 -5 12 -27 15 -118 15
-250 1 -597 62 -784 138 -39 17 -75 26 -77 21 -7 -10 -34 0 -138 52 -45 23
-104 53 -132 67 -56 27 -65 37 -65 70 0 27 -26 39 -51 24 -20 -13 -49 -6 -49
11 0 6 8 19 18 30 16 19 16 20 -1 14 -11 -4 -20 -1 -24 9 -5 15 -62 50 -75 46
-4 -1 -13 8 -19 21 -7 12 -38 49 -69 83 -31 34 -70 80 -86 102 -16 23 -36 42
-46 42 -24 0 -89 78 -126 152 -17 35 -32 68 -32 73 0 4 -26 49 -59 99 -32 50
-75 125 -96 165 -20 41 -48 92 -61 113 -13 21 -24 43 -24 49 0 6 -15 46 -34
88 -19 42 -47 119 -62 171 -15 52 -30 97 -34 100 -4 3 -10 23 -13 45 l-7 40
17 -32 c14 -29 22 -33 55 -33 21 0 54 7 73 14 19 8 35 13 35 11 0 -10 -58 -33
-97 -40 -24 -4 -43 -8 -43 -9 0 -16 34 -96 41 -96 4 0 6 -6 3 -14 -3 -7 9 -50
26 -95 25 -63 36 -81 47 -76 13 4 13 3 4 -9 -14 -17 -11 -25 67 -171 68 -128
207 -344 226 -351 6 -2 12 -14 12 -27 1 -12 22 -44 47 -72 l46 -50 33 30 c18
17 24 20 14 8 -18 -21 -17 -23 30 -90 27 -37 87 -108 134 -157 83 -87 220
-206 237 -206 4 0 19 21 33 47 28 53 138 225 188 292 18 25 31 50 28 56 -2 6
4 11 14 11 15 0 13 -7 -13 -46 -18 -25 -35 -47 -38 -50 -12 -11 -69 -100 -132
-207 l-66 -112 35 -22 c19 -11 41 -19 48 -16 8 3 13 -1 12 -11 -2 -24 193
-119 362 -175 192 -65 412 -100 676 -109 74 -2 79 -1 87 20 6 17 5 24 -6 28
-9 4 -15 19 -15 39 0 19 -5 46 -10 61 -12 30 -2 47 36 58 41 12 56 -14 65
-110 4 -49 8 -90 8 -92 2 -4 144 9 251 24 188 26 416 91 609 174 104 44 105
44 96 30 -11 -17 -113 -65 -232 -109 -203 -74 -451 -131 -641 -147 -80 -6
-110 -18 -78 -30 25 -10 19 -22 -15 -29 -31 -7 -31 -8 -25 -53 3 -25 8 -48 11
-50 8 -9 295 27 400 49 142 30 381 110 516 172 131 61 288 152 296 173 3 8 9
11 15 8 12 -8 59 24 224 153 155 120 302 258 389 362 32 39 63 67 68 64 6 -3
7 -2 4 4 -7 12 49 66 64 61 10 -3 -46 -70 -204 -242 -45 -49 -82 -95 -83 -103
-1 -7 2 -11 7 -7 5 3 6 10 3 16 -5 7 -2 8 5 4 17 -11 -1 -30 -124 -133 -236
-199 -576 -396 -820 -477 -175 -58 -359 -103 -500 -120 -71 -9 -148 -19 -170
-22 -37 -4 -41 -7 -43 -36 l-3 -31 63 7 c430 45 744 142 1050 322 296 175 538
355 706 525 29 29 53 49 53 46 1 -4 2 -13 3 -19 1 -7 -25 -39 -58 -72 -50 -47
-54 -53 -21 -30 l40 27 -34 -36 c-19 -20 -37 -35 -39 -32 -3 3 -11 -3 -19 -13
-9 -10 -12 -11 -7 -2 4 9 3 12 -2 7 -5 -5 -9 -14 -9 -20 0 -6 -38 -41 -84 -79
-153 -124 -470 -323 -674 -425 -61 -30 -113 -56 -115 -58 -7 -6 12 -35 22 -35
7 0 45 16 85 35 39 19 74 35 77 35 14 0 262 143 378 217 135 87 194 128 252
176 20 17 39 26 46 21 7 -4 10 -3 5 1 -10 11 23 46 36 38 5 -3 7 -2 4 4 -7 11
92 90 108 85 5 -2 7 0 2 4 -9 9 61 84 79 84 6 0 24 10 40 22 18 13 13 4 -15
-25 -24 -25 -49 -43 -54 -40 -6 3 -7 1 -4 -4 8 -13 -17 -36 -28 -25 -5 4 -5 2
-1 -5 4 -8 -37 -50 -111 -114 -159 -136 -486 -355 -675 -450 l-60 -30 25 -27
c13 -15 32 -42 41 -60 9 -17 22 -32 29 -32 6 0 39 15 73 33 33 17 102 54 153
81 51 27 95 55 98 63 3 7 -11 34 -31 60 -20 25 -33 49 -30 52 3 3 10 -3 16
-13 6 -10 26 -36 44 -56 19 -21 34 -42 34 -48 0 -11 -172 -110 -285 -164 -38
-18 -72 -36 -75 -39 -8 -10 -169 -84 -232 -107 -32 -12 -103 -33 -160 -47 -56
-15 -117 -33 -137 -41 -27 -11 -36 -12 -42 -2 -11 18 -5 20 185 72 124 34 173
52 184 67 10 14 17 17 26 9 17 -13 70 5 100 35 12 12 28 24 35 26 18 6 -43
129 -64 129 -9 0 -69 -27 -135 -59 -65 -32 -138 -62 -162 -65 -72 -11 -182
-38 -192 -47 -6 -5 -23 -9 -38 -9 -15 0 -28 -4 -28 -8 0 -15 41 -236 44 -240
8 -7 212 44 341 85 227 73 525 236 783 431 145 109 139 105 146 86 5 -12 2
-15 -9 -10 -9 3 -14 2 -11 -3 8 -12 -173 -152 -319 -247 -152 -99 -410 -230
-539 -273 -251 -83 -580 -151 -812 -166 -97 -7 -101 -8 -117 -35 -23 -37 -13
-185 11 -175 29 11 42 -15 42 -86 l0 -69 30 0 30 0 0 139 0 140 -37 3 c-26 2
-38 8 -38 18 0 11 13 16 50 18 117 6 340 35 476 62 442 90 792 260 1266 617
111 84 205 148 208 143 4 -6 12 -8 18 -4 7 3 2 -3 -9 -13 -149 -128 -204 -176
-204 -180 0 -14 176 -213 189 -213 4 0 16 9 26 20 18 19 16 22 -55 101 -40 44
-69 84 -64 88 5 5 44 -29 86 -74 l77 -83 51 47 52 46 -71 70 c-65 64 -85 95
-62 95 6 0 13 -5 16 -10 4 -6 11 -8 16 -5 5 4 9 -2 9 -11 0 -16 -1 -16 -20 1
-11 10 -20 14 -20 8 0 -18 37 -45 45 -33 5 8 26 -6 62 -42 l54 -53 87 90 c143
148 183 197 178 212 -3 8 -2 12 3 9 10 -7 59 46 98 105 14 21 31 39 37 38 7 0
6 -3 -2 -6 -6 -2 -10 -9 -6 -14 3 -5 -2 -12 -12 -16 -14 -5 -13 -8 7 -19 18
-9 27 -10 39 -1 20 17 -31 -52 -114 -153 -159 -193 -453 -460 -658 -598 -444
-298 -936 -490 -1473 -574 -189 -29 -596 -36 -803 -14 -422 46 -888 191 -1253
390 -333 182 -596 382 -864 657 -218 223 -352 404 -498 668 -204 370 -333 693
-396 991 -57 270 -74 702 -37 965 32 226 114 534 203 760 68 173 211 457 226
448 5 -3 7 -1 3 5 -12 20 128 253 227 377 93 116 313 341 435 447 121 104 329
260 448 336 173 109 472 253 704 339 99 36 392 110 510 128 287 44 738 54
1030 24z m226 -37 c-16 -2 -32 0 -37 5 -5 5 7 7 29 4 34 -5 35 -6 8 -9z m-169
-16 c4 -3 -12 -6 -35 -6 -22 0 -43 4 -46 9 -7 10 71 7 81 -3z m246 7 c-7 -2
-19 -2 -25 0 -7 3 -2 5 12 5 14 0 19 -2 13 -5z m-145 -194 c-11 -100 -18 -123
-32 -101 -3 5 0 50 7 101 7 61 14 86 19 74 4 -10 5 4 3 32 -4 40 -3 45 5 26 7
-16 7 -57 -2 -132z m389 135 c-3 -3 -12 -4 -19 -1 -8 3 -5 6 6 6 11 1 17 -2
13 -5z m-277 -50 c0 -8 -5 -12 -10 -9 -6 4 -8 11 -5 16 9 14 15 11 15 -7z
m-276 -64 c-5 -5 -10 3 -11 18 -1 22 0 24 9 8 6 -10 6 -22 2 -26z m263 -22
c-2 -13 -4 -3 -4 22 0 25 2 35 4 23 2 -13 2 -33 0 -45z m573 42 c8 -5 11 -10
5 -10 -5 0 -17 5 -25 10 -8 5 -10 10 -5 10 6 0 17 -5 25 -10z m-760 -26 c0 -8
-5 -12 -10 -9 -6 4 -8 11 -5 16 9 14 15 11 15 -7z m178 -74 c1 -23 0 -23 -9
-5 -7 15 -8 10 -4 -20 2 -22 5 -47 5 -56 0 -12 21 -18 95 -28 52 -8 92 -17 90
-21 -3 -5 3 -6 14 -3 10 3 47 -2 81 -11 34 -9 70 -16 80 -16 22 0 80 -31 80
-43 0 -5 4 -6 9 -3 5 3 11 -1 15 -9 6 -18 -5 -20 -21 -4 -6 6 -26 13 -43 15
-18 2 -63 13 -100 24 -78 23 -220 50 -269 50 -19 0 -31 3 -28 7 4 3 3 11 -2
17 -15 20 -21 77 -14 135 6 49 8 52 14 26 4 -16 7 -41 7 -55z m90 45 c-3 -3
-9 2 -12 12 -6 14 -5 15 5 6 7 -7 10 -15 7 -18z m-341 -16 c-3 -10 -1 -22 4
-25 15 -9 39 15 40 40 1 14 3 16 6 5 2 -8 -1 -27 -6 -42 -9 -24 -12 -25 -40
-14 -19 7 -29 17 -28 29 1 10 5 18 10 18 4 0 5 5 1 12 -5 7 -3 8 5 3 7 -4 11
-16 8 -26z m1133 -64 c40 -20 70 -39 67 -42 -3 -3 -21 4 -40 16 -19 11 -37 18
-40 14 -4 -3 -7 -1 -7 6 0 8 -6 11 -16 7 -8 -3 -13 -2 -10 3 3 5 -12 16 -34
25 -22 9 -40 18 -40 21 0 7 40 -9 120 -50z m-913 -57 c-3 -7 -5 -2 -5 12 0 14
2 19 5 13 2 -7 2 -19 0 -25z m1018 -6 c-3 -3 -11 0 -18 7 -9 10 -8 11 6 5 10
-3 15 -9 12 -12z m-293 -24 c-7 -7 -12 -8 -12 -2 0 14 12 26 19 19 2 -3 -1
-11 -7 -17z m363 -17 c-3 -2 -11 1 -18 7 -8 7 -18 8 -22 4 -5 -4 -5 -1 -1 5 5
10 11 10 26 1 11 -7 17 -14 15 -17z m-1001 -62 c-8 -14 -24 -10 -24 6 0 9 6
12 15 9 8 -4 12 -10 9 -15z m146 -13 c0 -3 -4 -8 -10 -11 -5 -3 -10 -1 -10 4
0 6 5 11 10 11 6 0 10 -2 10 -4z m305 -8 c14 -6 25 -15 25 -19 0 -5 8 -6 18
-3 13 5 14 4 3 -4 -15 -11 -61 -2 -60 12 0 5 -5 13 -13 17 -19 13 -3 11 27 -3z
m-217 -20 c2 -4 7 -6 12 -3 4 3 27 -2 51 -10 24 -8 64 -21 88 -28 25 -7 46
-20 49 -28 2 -9 1 -10 -5 -3 -4 6 -15 11 -23 11 -29 1 -250 70 -244 76 8 8 68
-4 72 -15z m340 -37 c11 -7 10 -9 -3 -14 -9 -4 -14 -3 -10 2 3 5 -1 12 -7 14
-7 3 -8 6 -3 6 6 0 16 -3 23 -8z m-523 -21 c-12 -5 -14 -9 -6 -9 8 -1 12 -4 8
-7 -9 -9 -28 6 -22 17 4 5 14 9 23 8 14 0 13 -2 -3 -9z m855 -10 c-12 -22 -21
-26 -17 -7 2 10 17 26 25 27 1 0 -2 -9 -8 -20z m-765 0 c3 -5 3 -15 -1 -21 -6
-11 -23 6 -24 24 0 10 18 9 25 -3z m933 -77 c-33 -40 -64 -70 -69 -67 -5 3 -6
-1 -3 -9 6 -17 -12 -32 -20 -18 -8 12 121 168 139 168 7 0 -14 -33 -47 -74z
m-307 34 c-10 -9 -11 -8 -5 6 3 10 9 15 12 12 3 -3 0 -11 -7 -18z m-501 -12
c0 -8 -7 -15 -15 -15 -16 0 -20 12 -8 23 11 12 23 8 23 -8z m90 -19 c0 -21
-20 -30 -33 -17 -8 8 -6 11 9 11 16 0 17 2 4 10 -13 8 -12 10 3 10 9 0 17 -6
17 -14z m834 -7 c-9 -10 -21 -16 -25 -13 -5 3 -7 -1 -4 -8 2 -7 -25 -44 -60
-83 -41 -44 -62 -62 -59 -48 8 31 129 170 148 170 14 0 14 -2 0 -18z m-320
-62 c3 3 6 1 6 -5 0 -16 -12 -15 -36 4 -18 15 -18 15 2 5 12 -6 24 -7 28 -4z
m-99 -7 c3 -5 1 -10 -4 -10 -6 0 -11 5 -11 10 0 6 2 10 4 10 3 0 8 -4 11 -10z
m-165 -7 c0 -5 -4 -14 -9 -22 -8 -12 -12 -12 -25 -2 -9 7 -13 17 -10 22 6 11
44 12 44 2z m302 -17 c7 4 8 2 4 -5 -9 -13 -26 -5 -25 12 0 9 2 8 6 -1 2 -6
10 -9 15 -6z m-136 -14 c1 -7 0 -8 -3 -2 -2 5 -9 10 -14 10 -6 0 -7 -4 -4 -10
3 -5 1 -10 -4 -10 -12 0 -14 13 -4 24 9 9 26 2 29 -12z m-81 -22 c14 -15 15
-20 4 -20 -19 1 -50 25 -42 33 10 11 19 8 38 -13z m-455 -10 c-8 -5 -19 -10
-25 -10 -5 0 -3 5 5 10 8 5 20 10 25 10 6 0 3 -5 -5 -10z m520 -9 c-5 -11 -10
-34 -10 -52 0 -25 -3 -30 -12 -21 -13 13 6 92 23 92 6 0 6 -7 -1 -19z m-1214
-22 c5 0 8 -24 7 -54 l-2 -55 57 -16 c31 -8 66 -18 77 -21 34 -9 6 11 -33 24
-20 7 -26 11 -12 8 14 -3 48 -8 76 -11 l51 -6 -23 -25 -22 -24 -84 16 c-46 9
-94 19 -106 21 -19 4 -21 8 -13 18 8 9 10 38 6 82 -4 44 -3 64 3 56 5 -8 13
-13 18 -13z m1359 -33 c-26 -19 -40 -4 -24 23 12 18 15 19 28 6 13 -13 13 -17
-4 -29z m139 4 c10 -13 9 -13 -6 -1 -10 7 -18 21 -17 30 0 13 1 14 6 1 3 -8
11 -22 17 -30z m-2365 -62 c6 -28 8 -55 4 -58 -5 -4 -26 -12 -49 -17 l-40 -10
-21 59 -22 58 27 6 c15 3 32 7 37 9 40 13 52 5 64 -47z m2155 -24 c-26 -33
-51 -58 -56 -56 -4 1 -8 -2 -8 -8 0 -5 -5 -10 -11 -10 -11 0 14 39 70 108 21
27 38 39 44 33 5 -5 -9 -31 -39 -67z m151 57 c3 -5 2 -12 -3 -15 -5 -3 -9 1
-9 9 0 17 3 19 12 6z m-2521 -98 c10 -37 -4 -63 -36 -63 -19 0 -67 46 -68 66
0 21 26 35 60 32 29 -3 36 -8 44 -35z m1457 -2 c108 -24 221 -62 318 -107 99
-45 261 -135 258 -143 -3 -12 28 -51 40 -51 7 0 13 -7 13 -15 0 -8 -8 -15 -18
-15 -17 0 -151 84 -163 102 -3 6 -10 9 -15 8 -5 -1 -10 3 -12 9 -3 8 5 8 25 1
27 -10 27 -9 8 6 -25 20 -185 97 -191 91 -2 -2 27 -18 65 -36 38 -17 72 -38
75 -46 7 -20 5 -20 -72 19 -107 54 -363 131 -458 138 -30 2 -31 4 -22 30 12
34 29 35 149 9z m991 -26 c-13 -16 -23 -22 -27 -15 -4 6 3 23 16 36 29 31 38
13 11 -21z m-2702 5 c0 -12 -7 -20 -17 -20 -10 0 -27 -7 -37 -15 -17 -13 -21
-13 -32 3 -11 15 -7 19 29 33 55 22 57 22 57 -1z m2820 -25 c0 -8 -7 -15 -15
-15 -16 0 -20 12 -8 23 11 12 23 8 23 -8z m-678 -27 c-7 -7 -12 -8 -12 -2 0
14 12 26 19 19 2 -3 -1 -11 -7 -17z m-1954 -8 c15 0 15 -2 2 -10 -20 -13 -33
-13 -25 0 11 18 -22 10 -40 -10 -9 -10 -34 -25 -54 -31 -38 -12 -162 -75 -221
-111 -31 -20 -33 -20 -20 -3 18 23 17 22 -83 -43 -57 -36 -68 -48 -63 -65 5
-20 4 -21 -8 -4 -7 9 -16 17 -20 17 -4 0 -39 -25 -77 -57 l-70 -56 23 -22 c21
-20 25 -21 46 -7 12 8 22 19 22 25 0 13 31 36 50 36 16 0 12 -3 -133 -126 -46
-40 -102 -96 -123 -125 -21 -29 -64 -83 -96 -120 -93 -110 -95 -126 -16 -150
23 -7 34 -14 27 -19 -6 -4 -26 -3 -43 2 -62 18 -68 15 -134 -91 -34 -56 -60
-106 -56 -112 4 -6 3 -8 -3 -5 -10 7 -77 -128 -127 -256 -35 -88 -91 -275
-106 -352 -6 -33 -17 -75 -23 -93 -7 -21 -8 -36 -2 -40 6 -4 11 -23 12 -42 1
-19 9 -63 18 -97 15 -56 20 -63 44 -64 23 -2 24 -2 4 -6 -26 -5 -26 -8 -9
-113 11 -71 13 -75 41 -82 26 -5 24 -6 -11 -5 l-42 1 -7 70 c-3 39 -15 107
-25 151 -10 44 -21 97 -24 118 -5 24 -12 37 -23 37 -12 0 -14 7 -8 38 4 20 7
42 8 47 1 6 5 13 10 16 4 3 23 68 43 145 69 274 173 548 207 549 6 1 11 7 9
15 -2 8 0 12 4 8 7 -8 103 139 104 159 0 6 -9 14 -19 18 -19 6 -19 7 1 41 12
20 56 72 99 116 43 45 76 84 74 88 -2 4 7 18 21 31 14 13 35 37 46 53 l21 28
-44 39 c-34 29 -40 38 -25 39 11 0 34 -11 52 -25 18 -14 35 -25 38 -25 11 0
46 70 46 93 0 19 15 37 63 74 81 64 120 91 137 95 8 2 22 10 31 18 10 8 53 36
96 62 81 50 355 160 361 146 2 -4 11 -8 20 -8z m2853 -46 l53 -54 -64 -65
c-35 -36 -68 -65 -72 -65 -4 0 14 27 41 61 50 61 69 100 47 96 -6 -1 -10 4 -8
11 1 6 -4 12 -10 12 -7 1 -30 16 -51 34 -33 29 -34 33 -13 29 13 -3 48 -29 77
-59z m-3282 -3 c11 -7 9 -10 -8 -16 -26 -8 -49 4 -30 16 17 11 21 11 38 0z
m3177 -34 c-8 -31 -45 -79 -57 -72 -14 9 20 67 34 59 7 -4 9 -4 5 1 -8 9 11
50 19 41 3 -3 3 -16 -1 -29z m-562 -26 c4 -5 -2 -8 -11 -7 -20 3 -43 -16 -44
-36 0 -9 -2 -10 -5 -1 -13 32 43 72 60 44z m-1128 -253 c547 -690 657 -818
706 -818 14 0 31 7 38 15 7 8 16 15 21 15 10 0 399 -360 458 -425 l44 -48 -7
-120 c-3 -66 -6 -262 -6 -436 l-1 -316 -118 -125 c-66 -69 -125 -125 -133
-125 -7 0 -13 -7 -13 -15 0 -8 -5 -15 -12 -15 -6 0 -15 -4 -20 -9 -5 -5 -3 -6
5 -2 19 11 14 -9 -7 -28 -11 -10 -25 -15 -32 -10 -8 4 -10 3 -5 -4 4 -7 -23
-42 -62 -84 -38 -40 -96 -103 -128 -140 l-59 -68 -226 0 -225 0 -55 -33 c-30
-18 -118 -79 -197 -135 l-143 -102 -57 43 c-31 24 -115 83 -185 130 -146 97
-126 92 -397 103 -85 3 -171 9 -190 13 -31 5 -75 47 -317 306 l-281 299 5 431
c3 236 8 435 12 441 3 6 42 42 86 79 44 37 145 129 225 205 224 212 214 204
244 185 l24 -16 174 208 c260 311 556 676 631 776 15 20 30 37 31 37 2 0 80
-96 172 -212z m-1776 142 c0 -5 -4 -10 -10 -10 -5 0 -10 5 -10 10 0 6 5 10 10
10 6 0 10 -4 10 -10z m3005 -30 c7 -12 76 -44 88 -41 5 1 6 -3 2 -9 -3 -5 2
-10 12 -10 10 0 29 -10 43 -23 14 -13 32 -22 40 -20 13 4 13 3 0 -6 -12 -9
-13 -11 -1 -11 8 0 12 -2 9 -5 -6 -6 -204 110 -213 126 -4 5 -2 9 4 9 5 0 13
-5 16 -10z m-100 -10 c3 -6 -1 -7 -9 -4 -18 7 -21 14 -7 14 6 0 13 -4 16 -10z
m-1995 -80 c-12 -16 -24 -30 -26 -30 -3 0 4 14 16 30 12 17 24 30 26 30 3 0
-4 -13 -16 -30z m2133 -2 c12 -6 70 -49 129 -95 60 -46 111 -84 115 -86 5 -1
7 -6 5 -10 -1 -5 2 -6 8 -2 6 3 7 12 3 18 -11 18 -13 38 -3 32 5 -3 14 4 20
15 16 30 45 24 78 -16 20 -24 35 -34 44 -29 7 5 1 -5 -13 -21 -45 -50 -44 -58
24 -137 90 -103 157 -192 204 -268 l40 -65 -56 -45 c-30 -24 -69 -63 -87 -86
-18 -23 -34 -39 -38 -36 -3 3 10 25 29 48 19 23 35 46 35 51 0 5 14 21 32 36
l33 27 -30 58 c-67 129 -235 327 -385 455 -74 62 -190 148 -202 148 -4 0 -19
-12 -34 -27 l-26 -28 23 37 c27 43 24 41 52 26z m-2277 -225 c-1 -22 -23 -34
-112 -63 -38 -12 -82 -28 -99 -35 -16 -7 -97 -34 -179 -60 -110 -34 -154 -53
-172 -73 -15 -15 -22 -19 -18 -9 5 14 1 16 -27 12 -21 -3 -15 1 16 10 28 8 60
25 72 39 12 15 23 21 25 14 3 -7 11 -9 24 -3 10 4 24 9 30 10 6 2 50 15 98 29
67 21 86 31 82 42 -4 11 -2 12 13 4 26 -14 210 50 230 79 16 26 19 26 17 4z
m54 -3 c-8 -5 -22 -9 -30 -9 -10 0 -8 3 5 9 27 12 43 12 25 0z m-835 -122 c67
-102 81 -116 113 -111 16 2 6 -5 -23 -16 -54 -21 -98 -28 -52 -8 l28 12 -42
65 c-23 36 -43 67 -45 69 -2 3 -11 -4 -19 -15 -14 -18 -14 -17 -5 8 6 18 6 29
0 33 -9 6 -14 35 -6 35 1 0 25 -33 51 -72z m2602 66 c-3 -3 -12 -4 -19 -1 -8
3 -5 6 6 6 11 1 17 -2 13 -5z m1041 -74 c20 0 40 -22 147 -158 54 -70 63 -87
55 -103 -6 -10 -12 -19 -15 -19 -2 0 -10 -2 -17 -5 -10 -4 -30 16 -58 57 -24
35 -78 106 -119 158 -41 52 -79 101 -85 109 -6 8 8 2 31 -12 24 -15 51 -27 61
-27z m-3328 20 c-6 -11 -13 -20 -16 -20 -2 0 0 9 6 20 6 11 13 20 16 20 2 0 0
-9 -6 -20z m2701 -87 c13 -16 12 -17 -3 -4 -10 7 -18 15 -18 17 0 8 8 3 21
-13z m-2873 -135 c-24 -33 -95 -114 -158 -180 -104 -107 -140 -135 -140 -109
0 5 6 8 13 7 15 -1 218 208 276 287 58 76 64 73 9 -5z m-798 7 c-10 -12 -10
-15 0 -15 8 0 11 -3 7 -6 -3 -3 -11 -3 -17 1 -8 5 -8 11 1 21 6 8 14 14 16 14
3 0 0 -7 -7 -15z m1160 12 c0 -1 -24 -25 -52 -52 l-53 -50 50 53 c46 48 55 57
55 49z m-367 -114 c-7 -2 -21 -2 -30 0 -10 3 -4 5 12 5 17 0 24 -2 18 -5z
m237 -28 c-13 -14 -27 -25 -32 -25 -9 0 42 49 51 50 3 0 -6 -11 -19 -25z
m-115 4 c18 -8 17 -9 -5 -5 -14 3 -32 -2 -45 -12 -20 -17 -20 -17 -1 6 21 24
22 25 51 11z m-85 -42 c0 -2 -10 -12 -22 -23 l-23 -19 19 23 c18 21 26 27 26
19z m3595 -7 c-4 -6 10 -36 29 -68 31 -51 54 -99 121 -247 7 -16 19 -47 25
-68 10 -33 16 -38 36 -34 28 5 32 -8 6 -22 -22 -12 -71 -3 -51 10 17 10 -23
113 -112 288 -60 118 -72 151 -53 151 3 0 2 -5 -1 -10z m-3695 -93 c0 -2 -10
-12 -22 -23 l-23 -19 19 23 c18 21 26 27 26 19z m3437 -23 c-3 -3 -12 -4 -19
-1 -8 3 -5 6 6 6 11 1 17 -2 13 -5z m-152 -24 c10 -11 16 -20 13 -20 -3 0 -13
9 -23 20 -10 11 -16 20 -13 20 3 0 13 -9 23 -20z m55 -70 c12 -16 19 -30 16
-30 -2 0 -14 14 -26 30 -12 17 -19 30 -16 30 2 0 14 -13 26 -30z m567 -302
c-3 -8 -6 -5 -6 6 -1 11 2 17 5 13 3 -3 4 -12 1 -19z m21 -78 c0 -9 -3 -7 -8
5 -5 11 -8 29 -8 40 0 16 2 15 8 -5 4 -14 8 -32 8 -40z m17 -81 c10 -68 2 -71
-11 -4 -5 30 -7 55 -3 55 4 0 10 -23 14 -51z m12 -91 c-3 -8 -6 -5 -6 6 -1 11
2 17 5 13 3 -3 4 -12 1 -19z m-4290 -8 c-32 -25 -42 -26 -19 -1 9 11 23 20 31
20 7 1 2 -8 -12 -19z m4302 -52 c0 -28 -2 -30 -9 -13 -12 28 -12 45 0 45 6 0
10 -15 9 -32z m-4799 -95 c0 -10 -4 -14 -8 -8 -4 6 -11 13 -16 18 -5 4 -2 7 7
7 10 0 17 -8 17 -17z m420 -4 c-7 -11 -14 -18 -17 -15 -3 3 0 12 7 21 18 21
23 19 10 -6z m4420 -35 c0 -2 -7 -4 -15 -4 -8 0 -15 4 -15 10 0 5 7 7 15 4 8
-4 15 -8 15 -10z m100 -8 c0 -8 5 -18 12 -22 7 -5 8 -2 3 7 -6 11 -5 12 6 2 9
-9 10 -16 2 -24 -8 -8 -15 -4 -27 12 -18 27 -20 39 -6 39 6 0 10 -6 10 -14z
m-4693 -12 c-3 -3 -12 -4 -19 -1 -8 3 -5 6 6 6 11 1 17 -2 13 -5z m4743 -74
c0 -56 -3 -70 -15 -70 -11 0 -15 12 -15 50 0 41 15 90 27 90 2 0 3 -31 3 -70z
m-4693 -77 c-2 -21 -4 -6 -4 32 0 39 2 55 4 38 2 -18 2 -50 0 -70z m4982 47
c12 0 21 -4 21 -10 0 -18 -47 -10 -66 11 -19 22 -19 22 3 10 12 -6 31 -11 42
-11z m-462 -97 c-3 -10 -5 -4 -5 12 0 17 2 24 5 18 2 -7 2 -21 0 -30z m106 20
c-7 -2 -19 -2 -25 0 -7 3 -2 5 12 5 14 0 19 -2 13 -5z m61 -25 c-4 -13 -10
-48 -14 -78 -8 -54 -8 -53 -8 23 1 60 4 77 15 77 10 0 12 -6 7 -22z m-169 -47
c-9 -16 -25 -3 -18 15 4 10 9 12 15 6 6 -6 7 -15 3 -21z m508 -38 c-7 -2 -19
-2 -25 0 -7 3 -2 5 12 5 14 0 19 -2 13 -5z m74 -15 c-3 -8 -6 -5 -6 6 -1 11 2
17 5 13 3 -3 4 -12 1 -19z m-4980 -75 c-3 -10 -5 -4 -5 12 0 17 2 24 5 18 2
-7 2 -21 0 -30z m4548 6 c-6 -32 -12 -34 -12 -4 0 14 3 25 8 25 4 0 6 -10 4
-21z m270 -19 c-3 -5 -12 -10 -18 -10 -7 0 -6 4 3 10 19 12 23 12 15 0z
m-4798 -47 c-3 -10 -5 -4 -5 12 0 17 2 24 5 18 2 -7 2 -21 0 -30z m203 -17 c0
-2 -7 -7 -16 -10 -8 -3 -12 -2 -9 4 6 10 25 14 25 6z m4140 -30 c0 -13 -7 -37
-16 -52 -15 -27 -15 -27 -10 -4 3 14 6 37 6 53 0 15 5 27 10 27 6 0 10 -11 10
-24z m-4330 -11 c0 -9 -9 -15 -22 -14 -17 1 -19 2 -5 6 9 2 17 9 17 14 0 5 2
9 5 9 3 0 5 -7 5 -15z m-62 -22 c-10 -2 -28 -2 -40 0 -13 2 -5 4 17 4 22 1 32
-1 23 -4z m4337 -200 c-29 -86 -54 -144 -55 -126 0 6 13 47 29 90 15 43 32 96
36 118 6 29 10 34 12 18 2 -12 -8 -57 -22 -100z m856 96 c18 -11 -38 -11 -66
0 -16 7 -12 9 16 9 20 0 42 -4 50 -9z m59 -15 c0 -2 -7 -4 -15 -4 -8 0 -15 4
-15 10 0 5 7 7 15 4 8 -4 15 -8 15 -10z m-1090 -11 c2 -2 0 -7 -6 -11 -6 -4
-16 -16 -23 -27 -11 -17 -12 -17 -7 -2 4 12 -2 26 -16 38 l-23 20 35 -7 c19
-3 37 -8 40 -11z m950 -8 c0 -14 -4 -25 -9 -25 -5 0 -8 11 -8 25 0 14 3 25 8
25 5 0 9 -11 9 -25z m35 -45 c-3 -5 -14 -10 -23 -10 -15 0 -15 2 -2 10 20 13
33 13 25 0z m-52 -20 c-3 -12 -8 -19 -11 -16 -5 6 5 36 12 36 2 0 2 -9 -1 -20z
m-5032 -87 c12 -16 12 -17 -1 -7 -8 7 -24 14 -35 17 -19 4 -19 5 1 6 12 0 28
-7 35 -16z m4983 2 c-4 -8 -8 -15 -10 -15 -2 0 -4 7 -4 15 0 8 4 15 10 15 5 0
7 -7 4 -15z m-10 -40 c3 -8 1 -15 -4 -15 -6 0 -10 7 -10 15 0 8 2 15 4 15 2 0
6 -7 10 -15z m-953 -5 c10 0 19 -4 19 -8 0 -4 -16 -6 -35 -4 -19 2 -35 9 -35
14 0 6 7 7 16 4 9 -3 24 -6 35 -6z m-3818 -43 c-3 -4 -6 -7 -7 -5 -1 2 -8 12
-16 22 -14 18 -14 18 7 6 12 -8 19 -18 16 -23z m4880 11 c30 -6 45 -14 40 -19
-6 -6 -21 -6 -39 0 -16 5 -41 12 -56 15 -16 4 -28 11 -28 17 0 7 7 8 17 4 10
-3 40 -11 66 -17z m-129 -27 c-4 -17 -9 -30 -11 -27 -3 2 -2 19 2 36 9 41 17
33 9 -9z m-4698 -40 c21 -16 52 -52 67 -80 36 -66 26 -67 -12 0 -35 62 -89
102 -128 94 -23 -4 -24 -4 -8 4 31 15 39 13 81 -18z m4675 -24 c-10 -9 -11 -8
-5 6 3 10 9 15 12 12 3 -3 0 -11 -7 -18z m-4534 -182 c21 -42 1 -19 -26 30
-13 22 -15 31 -6 20 9 -11 23 -33 32 -50z m-758 -27 c25 -40 64 -101 88 -136
71 -103 81 -132 50 -132 -6 0 -8 3 -4 6 3 3 -7 17 -22 30 -42 35 -163 233
-166 272 -1 17 1 32 4 32 4 0 26 -33 50 -72z m811 -78 c-14 -26 -129 -180
-135 -180 -3 0 25 41 61 90 55 75 65 95 60 118 -6 25 -5 26 8 8 11 -13 12 -24
6 -36z m1903 -79 c-26 -37 -103 -142 -173 -236 -69 -93 -153 -207 -186 -252
l-60 -81 -165 206 c-91 114 -190 239 -220 277 l-54 70 43 -33 c23 -19 42 -31
42 -28 0 4 15 0 33 -8 24 -9 39 -11 51 -4 28 16 57 -5 155 -117 49 -56 98
-105 110 -108 24 -6 56 22 130 113 59 72 204 224 234 245 13 9 28 10 49 5 23
-7 27 -6 19 3 -8 10 -4 13 14 13 23 0 22 -3 -22 -65z m1636 17 c-10 -29 -18
-62 -19 -72 0 -26 -20 -7 -22 20 -1 15 48 104 57 104 1 0 -6 -24 -16 -52z
m-248 -71 l-24 -22 19 27 c10 14 21 24 23 22 3 -3 -6 -15 -18 -27z m-41 -57
c-12 -16 -24 -30 -26 -30 -3 0 4 14 16 30 12 17 24 30 26 30 3 0 -4 -13 -16
-30z m-2865 0 c10 -11 16 -20 13 -20 -3 0 -13 9 -23 20 -10 11 -16 20 -13 20
3 0 13 -9 23 -20z m-935 -113 c101 -129 387 -406 480 -467 13 -8 36 -27 51
-42 15 -15 30 -24 33 -21 3 4 6 1 6 -4 0 -6 -6 -14 -12 -16 -7 -3 -2 -6 11 -6
22 -1 102 -71 81 -71 -5 0 -45 28 -91 63 -45 34 -96 72 -113 85 -46 33 -218
193 -326 302 -121 123 -182 194 -198 231 -6 16 -17 29 -23 29 -5 0 -7 5 -4 10
10 15 44 -15 105 -93z m3726 16 c-19 -27 -44 -58 -56 -71 -18 -19 -20 -26 -9
-38 11 -13 9 -19 -11 -34 -14 -10 -28 -16 -32 -13 -5 2 -7 -1 -6 -9 2 -7 -3
-12 -10 -10 -8 1 -11 -2 -6 -9 4 -8 -16 -33 -52 -66 -37 -33 -55 -56 -48 -61
14 -9 -148 -159 -207 -190 l-44 -23 -28 31 c-16 17 -26 37 -24 43 8 24 33 17
51 -13 18 -31 18 -31 44 -14 15 10 55 40 90 68 46 37 62 56 58 69 -3 13 -1 15
7 8 13 -10 52 11 40 22 -3 4 -1 13 5 20 7 8 8 18 4 22 -4 5 -1 5 6 1 7 -4 12
-2 12 6 0 7 18 30 40 53 22 22 52 59 67 82 32 47 133 173 139 173 2 0 -11 -21
-30 -47z m298 -99 c-3 -16 -1 -23 6 -19 18 11 11 -1 -12 -21 -13 -10 -17 -12
-11 -4 7 10 8 21 3 30 -5 9 -5 19 2 27 15 19 17 16 12 -13z m-644 12 c0 -3 -4
-8 -10 -11 -5 -3 -10 -1 -10 4 0 6 5 11 10 11 6 0 10 -2 10 -4z m451 -75 c-6
-10 -23 -26 -38 -36 -25 -16 -24 -14 7 18 40 42 45 44 31 18z m1079 -21 c-6
-11 -13 -20 -16 -20 -2 0 0 9 6 20 6 11 13 20 16 20 2 0 0 -9 -6 -20z m-1467
-66 c11 -11 -29 -45 -46 -38 -10 4 -38 -13 -79 -46 -35 -28 -80 -65 -101 -81
-42 -34 -147 -93 -153 -86 -2 2 47 38 108 80 62 42 140 99 173 126 56 47 83
60 98 45z m-2438 -14 c3 -5 1 -10 -4 -10 -6 0 -11 5 -11 10 0 6 2 10 4 10 3 0
8 -4 11 -10z m3925 6 c0 -2 -8 -10 -17 -17 -16 -13 -17 -12 -4 4 13 16 21 21
21 13z m-3805 -74 c-3 -3 -11 0 -18 7 -9 10 -8 11 6 5 10 -3 15 -9 12 -12z
m64 -28 c14 -12 -19 -1 -35 12 -18 14 -18 14 6 3 14 -6 27 -13 29 -15z m3609
6 c-7 -10 -14 -17 -17 -15 -4 4 18 35 25 35 2 0 -1 -9 -8 -20z m-30 -54 c-2
-1 -12 -8 -22 -16 -18 -14 -18 -14 -6 7 8 12 18 19 23 16 4 -3 7 -6 5 -7z
m-3300 -53 c-10 -2 -26 -2 -35 0 -10 3 -2 5 17 5 19 0 27 -2 18 -5z m2512 -10
c0 -17 -49 -68 -57 -60 -4 5 4 19 19 32 15 13 24 26 21 29 -4 3 -1 6 5 6 7 0
12 -3 12 -7z m-765 -62 c-11 -19 -171 -109 -262 -149 -250 -111 -490 -171
-782 -198 -59 -5 -73 -4 -69 7 3 9 53 19 162 31 318 35 612 131 896 293 47 26
65 31 55 16z m922 3 c-3 -3 -12 -4 -19 -1 -8 3 -5 6 6 6 11 1 17 -2 13 -5z
m313 -92 c0 -8 -58 45 -75 68 -10 14 3 5 28 -20 26 -24 47 -46 47 -48z m-345
68 c-12 -19 -43 -31 -51 -18 -4 7 -3 8 4 4 7 -4 12 -2 12 4 0 6 4 9 9 5 5 -3
12 -1 16 5 3 5 8 10 11 10 3 0 2 -4 -1 -10z m-224 -23 c-10 -9 -11 -8 -5 6 3
10 9 15 12 12 3 -3 0 -11 -7 -18z m466 -102 c33 -36 32 -45 -1 -20 -11 8 -16
15 -10 15 5 1 -9 17 -31 36 -22 20 -29 29 -14 20 14 -9 39 -32 56 -51z m-317
52 c0 -2 -17 -19 -37 -38 l-38 -34 34 38 c33 34 41 42 41 34z m-80 -74 c0 -1
-8 -7 -18 -12 -13 -7 -19 -6 -19 2 0 7 9 13 19 13 10 0 18 -1 18 -3z m-190
-32 c-5 -10 -21 -21 -35 -23 -32 -7 -31 -3 2 27 31 26 48 24 33 -4z m530 -13
c24 -29 26 -35 11 -31 -10 3 -22 0 -25 -6 -10 -16 -26 -13 -26 5 0 9 5 12 12
8 7 -4 3 8 -9 28 -28 48 -4 45 37 -4z m-128 15 c2 -5 -14 -25 -34 -46 -25 -25
-38 -33 -38 -23 0 9 5 16 12 16 6 0 8 3 5 7 -4 3 3 17 15 30 22 24 34 29 40
16z m-488 -68 c-31 -24 -39 -17 -13 11 13 14 25 20 27 14 2 -6 -4 -18 -14 -25z
m519 -74 c4 -17 2 -18 -14 -8 -22 14 -25 27 -5 27 7 0 16 -9 19 -19z m72 -51
c3 -5 2 -10 -4 -10 -5 0 -13 5 -16 10 -3 6 -2 10 4 10 5 0 13 -4 16 -10z"/>
<path d="M3745 7243 c-98 -11 -261 -35 -264 -39 -2 -2 2 -10 9 -19 7 -8 15
-53 18 -100 4 -74 7 -85 23 -85 17 0 19 9 21 68 l2 67 3 -64 c4 -55 1 -67 -18
-87 -12 -13 -28 -24 -34 -24 -7 0 -15 44 -22 115 -6 64 -13 118 -16 121 -7 7
-110 -5 -125 -15 -7 -4 -7 -24 3 -66 7 -33 16 -77 19 -97 5 -30 12 -38 28 -38
17 0 19 4 14 33 -3 17 -8 64 -11 102 l-5 70 22 -102 c16 -71 29 -107 42 -116
18 -13 18 -14 -8 -21 -39 -10 -31 -42 9 -39 202 13 208 15 252 94 19 33 31 45
44 42 16 -4 14 -10 -12 -56 -16 -29 -33 -59 -38 -67 -4 -8 -19 -17 -32 -20
-17 -4 -23 -12 -21 -26 2 -18 2 -18 -8 -1 -12 18 -70 25 -70 7 0 -11 13 -42
60 -146 36 -78 94 -144 127 -144 9 0 11 -8 7 -24 -3 -14 -4 -29 -1 -33 3 -4
34 -6 69 -3 52 4 63 8 62 23 -1 9 -2 25 -3 34 -1 13 -4 14 -13 5 -21 -21 -66
-14 -98 17 -17 15 -30 34 -30 41 0 7 -6 10 -13 7 -8 -3 -14 0 -15 6 -13 119
-13 146 3 200 9 32 20 56 23 52 4 -4 12 -65 17 -137 9 -123 12 -132 35 -149
14 -10 48 -20 75 -22 46 -3 50 -6 53 -31 3 -21 8 -27 25 -24 19 3 21 8 19 48
-5 68 -8 74 -56 97 -102 50 -139 173 -84 278 51 97 186 126 281 59 23 -17 41
-38 41 -47 -1 -9 3 -15 9 -14 6 1 18 -23 25 -53 24 -91 -5 -158 -91 -221 -22
-16 -51 -29 -64 -29 -21 0 -23 -4 -21 -47 l1 -48 4 43 c6 62 24 52 22 -13 -1
-30 0 -58 4 -61 13 -13 37 6 37 30 0 13 7 26 15 30 12 4 15 -4 15 -45 0 -49 1
-50 28 -47 35 4 45 52 13 61 -39 10 -21 26 31 29 54 3 64 12 136 120 11 16 22
26 25 23 4 -3 5 -2 2 1 -4 7 20 59 38 82 7 9 13 9 22 2 10 -8 15 -8 21 1 4 7
3 9 -4 5 -14 -9 -24 8 -16 29 4 9 13 14 20 11 8 -3 14 -1 14 4 0 6 -13 10 -30
10 -48 0 -124 24 -141 44 -11 14 -18 16 -23 8 -4 -7 -1 -12 8 -12 23 0 27
-199 5 -222 -29 -28 -37 -2 -32 115 5 109 4 114 -25 170 -24 48 -26 55 -9 40
19 -17 19 -15 -2 17 -12 19 -25 43 -28 53 -4 12 -12 17 -25 14 -16 -5 -17 -3
-7 9 9 11 8 18 -5 32 -9 10 -16 23 -16 29 0 6 -7 14 -16 17 -8 3 -13 10 -9 15
8 13 -8 21 -24 12 -10 -6 -10 -17 -2 -47 6 -22 11 -49 11 -61 0 -27 -26 -31
-34 -5 -14 50 -16 81 -7 87 6 3 11 15 11 26 0 25 -30 25 -37 0 -3 -11 -11 -17
-18 -15 -7 3 -16 1 -20 -5 -10 -18 -21 -13 -34 15 -12 26 -11 26 -88 14 -2 0
-3 -6 -3 -14 0 -8 -7 -16 -15 -20 -8 -3 -18 -25 -22 -48 -6 -43 -7 -43 -14
-13 -6 22 -3 38 11 63 11 18 20 35 20 38 0 4 -24 4 -75 -3z m205 -63 c0 -5 -4
-10 -9 -10 -20 0 -71 -53 -71 -73 -1 -12 -7 -33 -15 -47 -18 -32 -18 -26 0 33
8 26 12 53 9 61 -6 15 12 32 41 39 34 8 45 7 45 -3z m-195 -81 c-8 -19 -13
-25 -9 -14 3 11 8 34 12 50 3 17 8 23 10 14 1 -9 -4 -32 -13 -50z m195 31 c13
-9 13 -11 0 -20 -8 -5 -18 -10 -22 -10 -11 0 -20 19 -13 30 8 12 16 12 35 0z
m-167 -65 c-3 -9 -8 -14 -10 -11 -3 3 -2 9 2 15 9 16 15 13 8 -4z m-101 -263
c-3 -8 -10 -3 -18 14 -19 36 -18 41 5 18 10 -10 16 -25 13 -32z"/>
<path d="M3267 7163 c-3 -5 6 -55 19 -113 13 -58 24 -118 24 -133 0 -27 2 -28
42 -25 50 4 58 19 24 52 -18 19 -30 51 -47 126 -18 81 -26 100 -40 100 -10 0
-20 -3 -22 -7z"/>
<path d="M3178 7144 c-3 -3 0 -18 8 -33 8 -15 26 -74 41 -129 14 -56 29 -102
32 -102 28 1 28 20 5 120 -14 58 -27 115 -30 128 -3 15 -12 22 -28 22 -12 0
-25 -3 -28 -6z"/>
<path d="M3122 7133 c-13 -3 -21 -10 -18 -16 2 -7 21 -61 41 -122 21 -60 41
-114 45 -118 3 -4 16 -4 27 0 21 8 21 8 2 78 -27 102 -54 179 -65 180 -5 1
-19 0 -32 -2z"/>
<path d="M3043 7113 c-13 -2 -23 -9 -23 -14 0 -5 18 -57 40 -115 22 -59 40
-108 40 -110 0 -2 -6 -4 -13 -4 -8 0 -30 46 -53 111 -39 110 -39 110 -68 104
-16 -3 -32 -7 -34 -10 -3 -2 11 -44 31 -92 44 -106 56 -149 37 -138 -13 8 -20
24 -64 143 -28 74 -39 82 -77 61 -19 -9 -19 -12 -6 -33 20 -30 77 -165 77
-182 0 -34 -18 -6 -60 91 -45 108 -57 119 -94 92 -16 -11 -14 -17 17 -87 19
-41 41 -92 48 -112 7 -21 18 -38 25 -38 14 0 270 76 283 84 10 7 -62 249 -75
252 -5 0 -19 -1 -31 -3z"/>
<path d="M3923 7002 c-42 -22 -61 -49 -69 -99 -9 -58 11 -116 51 -152 50 -43
65 -41 65 10 0 30 -4 40 -13 36 -11 -4 -12 8 -6 57 13 103 16 166 10 166 -3
-1 -21 -9 -38 -18z"/>
<path d="M3990 6960 c0 -33 4 -60 10 -60 6 0 10 27 10 60 0 33 -4 60 -10 60
-6 0 -10 -27 -10 -60z"/>
<path d="M4041 6883 c4 -138 4 -138 -19 -141 -13 -2 -21 -9 -19 -15 9 -28 101
12 130 57 23 35 30 90 17 130 -11 33 -82 106 -103 106 -6 0 -8 -56 -6 -137z"/>
<path d="M2677 6978 l-28 -10 24 -41 c14 -23 43 -79 67 -124 46 -89 65 -105
81 -70 9 19 2 44 -38 140 -50 122 -53 125 -106 105z"/>
<path d="M2600 6943 c-14 -9 -26 -17 -28 -19 -2 -1 22 -46 53 -99 31 -53 54
-99 51 -103 -4 -3 -11 -1 -16 4 -10 10 -108 173 -113 188 -2 5 -16 1 -33 -9
-40 -26 -40 -25 -28 -33 24 -17 115 -175 106 -184 -6 -6 -31 25 -67 86 -32 53
-63 96 -69 96 -7 0 -21 -6 -31 -14 -19 -13 -17 -18 38 -100 61 -91 64 -99 49
-104 -9 -3 -105 141 -115 172 -3 9 -67 -10 -67 -20 0 -2 29 -43 64 -91 59 -81
69 -103 46 -103 -5 0 -33 39 -62 86 -28 47 -55 87 -60 90 -15 9 -48 -7 -48
-23 0 -15 94 -151 115 -165 6 -5 6 -11 -2 -19 -7 -7 -14 -11 -16 -8 -24 28
-105 158 -101 162 3 3 -3 8 -14 11 -23 8 -83 -28 -224 -131 l-87 -64 62 -76
c34 -42 74 -90 89 -107 l26 -31 26 24 c14 14 26 28 26 32 0 4 -34 49 -75 99
-41 51 -72 97 -69 102 9 14 76 -54 69 -70 -2 -7 -1 -11 4 -8 5 3 28 -19 52
-49 24 -30 48 -54 52 -55 5 0 27 15 50 34 64 52 190 127 336 200 72 37 134 73
137 81 3 8 -1 27 -9 42 -8 15 -32 65 -53 111 l-39 82 -25 -17z m-340 -323 c37
-49 56 -81 49 -86 -6 -3 -14 -2 -18 2 -18 22 -111 163 -111 169 0 14 23 -10
80 -85z m-117 11 c9 -15 37 -51 63 -79 25 -29 42 -56 39 -62 -5 -8 -11 -7 -21
1 -22 18 -114 145 -114 158 0 20 15 12 33 -18z"/>
<path d="M4244 6905 c3 -21 16 -31 16 -12 0 9 -4 18 -9 21 -5 4 -8 -1 -7 -9z"/>
<path d="M3984 6870 c3 -14 6 -41 7 -60 1 -24 3 -28 6 -12 3 17 9 21 24 17 28
-9 23 10 -12 47 -29 32 -30 32 -25 8z"/>
<path d="M3310 6850 c-166 -29 -267 -55 -397 -102 -88 -32 -107 -45 -93 -68 7
-12 29 -8 132 28 68 23 161 51 208 63 94 23 321 59 333 52 16 -10 5 -19 -25
-21 -157 -12 -602 -138 -638 -181 -8 -10 -28 -21 -45 -24 -16 -3 -68 -23 -115
-45 -47 -22 -110 -51 -141 -65 -107 -47 -380 -233 -428 -290 -18 -23 -31 -21
-31 4 0 17 -13 10 -77 -43 -145 -118 -238 -200 -390 -344 -83 -79 -155 -144
-160 -144 -6 0 -10 7 -10 15 0 8 6 15 12 15 7 0 30 21 51 48 41 51 169 180
278 280 l69 63 -87 88 c-86 88 -102 110 -68 92 24 -13 152 -149 152 -161 0
-15 12 -12 40 10 l25 19 -55 58 c-124 130 -133 142 -114 139 10 -2 55 -43 100
-91 l81 -89 65 42 c35 23 77 55 92 71 l28 29 -33 49 c-18 26 -51 71 -73 98
-23 28 -48 61 -56 74 l-16 23 -34 -32 c-18 -17 -43 -38 -54 -46 -73 -51 -350
-322 -457 -449 -79 -93 -159 -199 -159 -210 0 -3 -9 -14 -21 -26 l-21 -21 23
-25 24 -24 -30 15 c-34 18 -45 12 -77 -45 -12 -21 -25 -36 -30 -33 -4 3 -9 0
-9 -5 -2 -16 -4 -23 -13 -48 -7 -21 -18 -28 -39 -24 -5 1 -6 -3 -2 -9 3 -6 11
-7 17 -4 8 5 9 1 5 -12 -7 -18 -7 -18 8 0 8 11 15 16 15 10 1 -5 8 3 16 19 8
15 20 27 27 27 7 0 8 -3 2 -8 -12 -8 -48 -72 -115 -204 -49 -96 -62 -136 -38
-122 7 4 8 3 4 -4 -4 -6 -13 -9 -20 -6 -18 7 -92 -178 -151 -381 -10 -33 -21
-67 -25 -75 -16 -32 -22 -80 -10 -80 6 0 8 -5 4 -11 -4 -7 0 -9 13 -5 11 4 55
-5 97 -20 43 -14 79 -24 81 -22 2 1 6 20 10 40 l7 36 -56 18 c-31 10 -56 21
-56 26 0 4 -8 5 -17 1 -15 -5 -16 -3 -6 7 10 11 15 11 28 0 8 -7 15 -10 15 -6
0 3 23 -3 52 -14 28 -11 52 -19 53 -17 9 19 20 85 14 81 -9 -5 -162 56 -156
63 3 2 31 -5 63 -17 103 -37 96 -39 122 34 12 35 22 72 22 80 0 24 19 19 30
-6 5 -14 9 -17 9 -7 1 8 -4 20 -9 25 -7 7 -7 21 1 42 8 25 8 36 -1 47 -11 13
-10 14 2 10 10 -4 19 4 28 24 7 17 17 31 22 31 5 0 6 -5 3 -10 -4 -6 -8 -25
-10 -43 -4 -32 -4 -32 9 -8 8 14 12 31 9 38 -3 7 0 13 6 13 6 0 11 5 11 10 0
6 -3 9 -7 9 -22 -4 -22 4 -2 41 12 21 27 36 32 33 6 -3 7 -1 3 5 -10 16 63
144 76 135 6 -3 8 -1 4 5 -3 6 5 32 19 57 13 26 23 51 20 55 -3 5 4 6 14 3 13
-3 21 2 26 17 5 17 -1 31 -28 59 -19 20 -37 44 -40 54 -4 11 -12 15 -19 11 -7
-4 -10 -3 -5 1 4 5 0 20 -9 34 -9 14 -12 22 -7 16 5 -5 43 -46 83 -89 41 -44
66 -76 56 -72 -19 7 -19 6 -1 -14 23 -25 37 -25 60 0 19 21 18 22 -42 79 -39
36 -55 58 -44 58 17 1 93 -66 86 -77 -2 -3 8 -6 23 -5 18 0 27 5 27 17 0 36
156 190 523 519 24 22 47 39 51 39 4 0 20 -13 35 -29 27 -28 27 -31 12 -52 -9
-13 -16 -33 -16 -44 0 -26 -18 -45 -36 -38 -22 8 -16 37 11 63 31 29 32 40 1
40 -15 0 -48 -21 -89 -57 -35 -32 -100 -89 -143 -128 -153 -136 -345 -328
-360 -361 -9 -18 -27 -45 -40 -59 -13 -14 -28 -36 -34 -48 -8 -16 -6 -15 10 5
16 21 26 26 38 19 20 -11 115 -101 107 -101 -9 0 -77 34 -106 53 l-27 18 -31
-50 c-41 -68 -153 -302 -198 -416 -20 -52 -41 -91 -46 -88 -6 3 -7 1 -3 -5 4
-7 -7 -54 -23 -106 -33 -102 -76 -285 -87 -367 -5 -37 -3 -53 6 -59 18 -11 3
-30 -26 -30 -16 0 -24 6 -24 18 0 29 37 235 56 308 50 201 179 521 278 689 56
95 70 129 52 122 -7 -3 -18 -1 -24 5 -7 7 -17 -2 -32 -31 -11 -23 -27 -44 -35
-48 -8 -3 -12 -9 -9 -14 7 -12 -27 -69 -38 -63 -4 3 -5 -3 -1 -12 5 -13 3 -15
-7 -9 -9 5 -11 4 -6 -3 10 -17 -12 -52 -33 -52 -10 0 -24 -6 -30 -13 -8 -10
-7 -14 4 -14 8 0 12 4 9 9 -3 4 2 8 10 8 21 0 21 1 -21 -85 -25 -51 -40 -71
-46 -62 -5 7 -6 1 -2 -16 3 -16 2 -26 -2 -24 -5 3 -9 -2 -10 -11 0 -9 -23 -85
-51 -168 -52 -154 -92 -328 -111 -489 -18 -143 -16 -139 -92 -201 -39 -31 -77
-70 -85 -87 -20 -37 -26 -31 -14 14 10 35 27 54 88 97 43 31 58 64 67 147 3
39 9 80 12 92 4 19 -3 24 -69 43 -40 12 -78 26 -84 31 -6 5 -14 6 -17 2 -4 -3
-13 0 -21 6 -8 7 -17 8 -20 3 -34 -56 -44 -651 -13 -836 9 -55 22 -103 29
-107 7 -5 14 -4 16 1 2 6 18 10 35 9 l32 -1 -35 -12 c-19 -7 -41 -11 -49 -8
-11 4 -11 1 -1 -17 11 -21 15 -22 88 -15 42 4 85 7 95 8 21 1 21 2 13 74 -4
31 -11 114 -16 183 l-8 126 -47 68 -46 68 23 25 c13 13 55 52 93 85 46 40 70
69 70 83 1 26 22 54 40 54 15 0 26 -48 14 -56 -16 -9 -10 -22 13 -28 22 -5 22
-6 4 -19 -12 -9 -17 -20 -13 -31 9 -22 187 -24 187 -2 0 8 -7 21 -15 29 -11
12 -12 16 -2 20 7 2 -1 11 -18 21 -27 15 -27 16 -5 11 65 -17 67 -17 74 1 4
11 10 47 13 81 l6 63 -45 0 c-25 0 -66 3 -92 6 -44 6 -46 8 -46 38 0 61 62
274 127 436 54 137 115 274 128 288 8 9 45 -11 39 -20 -5 -8 -1 -9 10 -5 10 4
15 3 11 -3 -3 -6 -16 -8 -29 -4 -20 5 -27 -4 -63 -83 -23 -48 -62 -146 -88
-218 -48 -131 -119 -394 -110 -403 8 -8 149 -20 156 -13 3 3 18 62 33 131 38
172 54 220 72 213 17 -6 20 27 4 43 -8 8 -2 33 19 85 16 41 31 84 33 95 1 10
5 21 8 24 3 3 13 23 23 44 15 31 16 41 5 47 -9 6 -7 9 7 9 17 0 17 2 5 10 -13
8 -13 10 2 10 11 0 26 17 39 43 86 169 255 419 364 535 40 42 74 82 76 88 7
17 167 161 294 263 144 115 328 232 476 302 93 45 109 56 109 76 0 12 5 23 10
23 6 0 10 -6 10 -14 0 -10 35 -2 138 30 185 60 380 106 571 135 35 5 67 12 72
15 5 3 -1 18 -14 33 -12 15 -45 76 -72 134 -57 125 -30 117 -255 77z m100
-136 c0 -8 -7 -14 -15 -14 -15 0 -21 21 -9 33 10 9 24 -2 24 -19z m-127 -50
c-3 -8 -9 -14 -13 -14 -14 0 -22 20 -16 37 5 12 9 13 21 3 7 -6 11 -18 8 -26z
m-152 -4 c39 -22 8 -90 -41 -90 -14 0 -40 42 -40 65 0 31 44 44 81 25z m454
-40 c-3 -5 -10 -10 -16 -10 -5 0 -9 5 -9 10 0 6 7 10 16 10 8 0 12 -4 9 -10z
m-698 -27 c-3 -5 0 -12 7 -18 15 -13 47 -15 40 -3 -4 6 -1 9 7 6 21 -7 23 -47
3 -55 -12 -4 -22 1 -32 15 -8 12 -21 22 -28 22 -14 0 -19 22 -7 33 9 9 15 9
10 0z m-18 -52 c12 -8 12 -12 2 -25 -24 -29 -60 -13 -47 19 6 17 24 19 45 6z
m-887 -184 c37 -43 48 -61 39 -70 -6 -6 -12 -9 -14 -6 -1 2 -29 39 -62 83 -59
78 -88 140 -39 81 14 -16 48 -56 76 -88z m710 71 c-10 -10 -16 -8 -30 5 -15
16 -15 19 -2 27 21 13 49 -15 32 -32z m-76 -30 c16 -16 16 -21 4 -28 -23 -15
-38 -12 -50 10 -11 21 -35 27 -45 10 -3 -5 3 -17 14 -27 23 -19 19 -33 -9 -33
-20 0 -40 27 -40 53 0 18 66 46 91 40 10 -3 26 -14 35 -25z m-727 -73 c34 -41
59 -80 56 -85 -4 -6 -31 20 -61 57 -30 37 -58 73 -64 79 -7 10 -4 24 5 24 1 0
30 -34 64 -75z m469 -17 c18 -18 14 -46 -7 -58 -15 -7 -23 -6 -35 6 -20 19
-20 23 1 46 19 21 25 22 41 6z m52 -74 c0 -8 -4 -12 -10 -9 -5 3 -10 10 -10
16 0 5 5 9 10 9 6 0 10 -7 10 -16z m-125 -24 c10 -11 14 -20 9 -20 -5 0 -15 9
-22 20 -7 11 -11 20 -9 20 2 0 12 -9 22 -20z m-520 -141 c-3 -4 1 -9 7 -12 7
-2 10 -7 7 -11 -3 -3 -40 31 -82 77 -42 47 -73 88 -69 92 8 9 143 -135 137
-146z m-45 -60 c0 -4 -6 -6 -12 -5 -24 3 -39 18 -34 33 3 8 2 12 -3 9 -4 -3
-16 3 -26 14 -10 11 -14 20 -10 20 5 0 -2 12 -16 28 -13 15 4 0 39 -33 34 -33
62 -62 62 -66z m-153 6 c0 -8 -4 -12 -9 -9 -5 3 -6 10 -3 15 9 13 12 11 12 -6z
m-7 -110 c9 -11 10 -19 3 -26 -7 -7 -16 -2 -27 15 -9 15 -14 26 -11 26 3 0 -4
9 -16 21 -11 11 -23 18 -26 15 -4 -3 -15 8 -25 25 -11 17 -23 27 -30 23 -7 -4
-8 -3 -4 5 5 8 26 -4 65 -38 32 -28 64 -58 71 -66z m429 -6 c18 -23 21 -33 12
-42 -12 -12 -35 8 -62 56 -17 30 23 19 50 -14z m-599 -65 c0 -8 -19 -13 -24
-6 -3 5 1 9 9 9 8 0 15 -2 15 -3z m-45 -63 c3 -5 2 -12 -3 -15 -5 -3 -9 1 -9
9 0 17 3 19 12 6z m450 -24 c25 -14 41 -31 43 -45 5 -35 -19 -27 -68 23 -48
49 -38 58 25 22z m-427 -9 c-2 -7 5 -12 14 -12 10 1 15 -2 13 -7 -3 -4 3 -12
12 -18 10 -6 14 -11 10 -11 -17 0 -67 42 -62 51 9 13 15 11 13 -3z m242 -111
c0 -2 -10 -12 -22 -23 l-23 -19 19 23 c18 21 26 27 26 19z m-70 -81 c0 -2 -8
-10 -17 -17 -16 -13 -17 -12 -4 4 13 16 21 21 21 13z m-30 -39 c0 -2 -10 -12
-22 -23 l-23 -19 19 23 c18 21 26 27 26 19z m-25 -136 c3 -5 -11 -27 -31 -48
l-37 -38 18 35 c17 35 35 60 41 60 1 0 5 -4 9 -9z m-391 -102 c-3 -5 -10 -7
-15 -3 -5 3 -7 10 -3 15 3 5 10 7 15 3 5 -3 7 -10 3 -15z m319 -4 c-3 -9 -8
-14 -10 -11 -3 3 -2 9 2 15 9 16 15 13 8 -4z m-379 -40 c3 -8 -6 -7 -29 3 -19
9 -32 19 -29 23 6 11 52 -10 58 -26z m-44 -77 c0 -5 4 -7 8 -4 4 2 14 1 22 -5
22 -13 -15 -12 -41 1 -22 12 -26 32 -4 24 8 -4 15 -10 15 -16z m460 -48 c8 -5
11 -10 5 -10 -5 0 -17 5 -25 10 -8 5 -10 10 -5 10 6 0 17 -5 25 -10z m-457
-62 c-3 -5 3 -8 12 -6 10 2 19 -3 21 -10 1 -7 0 -8 -3 -2 -2 5 -8 8 -12 5 -11
-6 -133 60 -125 68 9 9 114 -45 107 -55z m-35 -64 c34 -15 62 -31 62 -35 0
-10 -21 -2 -100 35 -72 34 -43 34 38 0z"/>
<path d="M2650 6632 c-201 -89 -502 -291 -541 -364 -19 -35 -3 -30 51 16 29
25 69 56 89 70 142 94 234 148 372 214 148 70 191 103 137 101 -13 0 -61 -17
-108 -37z"/>
<path d="M5839 6403 c-13 -16 -12 -17 4 -4 16 13 21 21 13 21 -2 0 -10 -8 -17
-17z"/>
<path d="M5944 6388 l-29 -33 33 29 c30 28 37 36 29 36 -2 0 -16 -15 -33 -32z"/>
<path d="M6155 6330 c-33 -37 -77 -80 -97 -96 -21 -15 -38 -31 -38 -34 0 -4
38 -38 83 -77 l84 -72 99 100 99 99 -23 22 -22 23 -100 -100 c-55 -55 -100
-93 -100 -86 0 8 42 56 94 107 l93 92 -28 21 -27 20 -70 -72 c-39 -39 -79 -83
-90 -97 -11 -14 -24 -22 -28 -18 -4 5 1 17 11 28 10 11 15 20 12 20 -4 0 28
32 71 71 42 40 78 75 79 78 1 3 -8 13 -20 22 -22 16 -24 14 -82 -51z"/>
<path d="M6302 6131 l-91 -99 21 -18 c20 -19 21 -18 113 79 73 77 94 94 99 81
5 -13 -18 -42 -84 -108 l-91 -90 23 -18 c13 -10 25 -18 28 -18 3 0 41 36 85
80 48 48 88 80 100 80 15 0 -5 -24 -73 -88 l-93 -87 30 -17 31 -17 82 76 c46
42 84 78 86 82 3 8 -157 181 -167 181 -4 0 -49 -44 -99 -99z"/>
<path d="M5230 6216 c0 -2 7 -7 16 -10 8 -3 12 -2 9 4 -6 10 -25 14 -25 6z"/>
<path d="M6545 5993 c-136 -122 -128 -113 -110 -132 15 -17 17 -16 53 18 20
20 59 55 85 77 45 38 47 41 30 56 -17 15 -21 14 -58 -19z"/>
<path d="M6170 6002 c0 -5 55 -63 123 -128 106 -104 286 -298 346 -374 13 -17
23 -22 30 -15 7 7 -21 53 -90 145 -127 171 -157 203 -186 197 -25 -5 -45 13
-41 34 2 8 -7 15 -20 17 -13 2 -54 33 -93 69 -38 36 -69 61 -69 55z"/>
<path d="M2847 5993 c-12 -11 -8 -23 8 -23 8 0 15 7 15 15 0 16 -12 20 -23 8z"/>
<path d="M6618 5963 c-5 -12 -126 -111 -140 -115 -10 -4 -10 -8 1 -21 7 -10
18 -17 24 -17 8 0 128 83 161 112 6 4 2 16 -9 28 -19 21 -31 25 -37 13z"/>
<path d="M6604 5837 c-73 -57 -80 -65 -68 -81 8 -12 17 -15 26 -9 40 25 158
116 158 122 0 8 -22 31 -29 31 -4 0 -43 -29 -87 -63z"/>
<path d="M2190 5823 l-65 -68 68 65 c37 35 67 66 67 67 0 8 -10 -2 -70 -64z"/>
<path d="M2637 5873 c-11 -10 13 -32 29 -26 11 4 12 9 3 19 -13 15 -22 18 -32
7z"/>
<path d="M6652 5772 c-74 -59 -81 -68 -63 -76 16 -7 34 2 90 43 39 28 75 51
81 51 5 0 10 3 10 8 -1 9 -26 42 -31 41 -2 0 -41 -31 -87 -67z"/>
<path d="M1163 5774 c-3 -8 -2 -19 3 -24 5 -5 10 1 10 16 2 27 -4 31 -13 8z"/>
<path d="M6711 5724 c-96 -69 -97 -70 -82 -88 16 -19 31 -12 118 53 64 47 73
61 51 79 -10 7 -33 -5 -87 -44z"/>
<path d="M6251 5685 l-73 -74 76 -88 c238 -274 417 -651 482 -1013 9 -52 22
-98 28 -102 6 -4 74 -8 151 -9 77 0 149 -4 160 -9 12 -5 -47 -9 -152 -9 -166
-1 -173 -2 -173 -21 0 -18 7 -20 63 -21 144 -3 162 -5 165 -23 2 -10 -2 -16
-10 -15 -42 5 -58 -2 -58 -26 0 -23 4 -25 45 -25 l45 0 0 45 0 45 66 0 c64 0
66 1 61 23 -3 12 -11 54 -17 92 -15 98 -72 314 -109 415 -35 94 -140 302 -156
307 -5 1 -16 -1 -23 -6 -11 -6 -7 -21 17 -69 73 -144 142 -342 176 -504 30
-140 30 -150 8 -146 -10 2 -18 15 -20 33 -11 86 -76 332 -111 420 -78 194
-104 247 -163 329 -61 86 -81 138 -37 100 11 -10 38 -45 58 -76 32 -49 40 -55
50 -43 10 13 4 28 -39 91 -77 114 -64 179 14 71 l39 -54 87 66 88 66 -36 65
c-20 36 -39 69 -44 74 -10 11 -165 -110 -172 -134 -3 -11 -13 -20 -23 -20 -9
0 -33 -17 -53 -38 -20 -22 -45 -44 -55 -49 -18 -10 -17 -16 34 -104 160 -279
251 -519 283 -741 l6 -38 -90 0 c-58 0 -88 4 -84 10 3 6 35 10 71 10 46 0 66
4 70 14 12 31 -83 350 -146 491 -17 37 -30 73 -30 81 0 8 -5 14 -11 14 -5 0
-16 15 -24 33 -7 17 -23 44 -34 59 -12 14 -37 62 -57 105 -19 43 -41 90 -49
105 -13 26 -12 30 16 57 16 16 29 36 29 44 0 8 -19 36 -43 62 -47 53 -62 54
-109 10 -27 -25 -48 -32 -48 -17 0 4 15 23 34 43 l34 35 -60 67 c-33 37 -63
67 -66 66 -4 0 -40 -33 -81 -74z m249 -125 c9 -16 8 -22 -5 -26 -21 -8 -39 10
-32 30 9 22 24 20 37 -4z"/>
<path d="M2100 5735 c-7 -9 -11 -17 -9 -20 3 -2 10 5 17 15 14 24 10 26 -8 5z"/>
<path d="M1114 5705 c-9 -14 -15 -27 -13 -30 3 -2 12 10 21 26 21 36 15 39 -8
4z"/>
<path d="M6757 5656 c-90 -70 -93 -74 -81 -86 16 -16 177 97 170 117 -3 8 -6
17 -6 19 0 11 -20 -2 -83 -50z"/>
<path d="M6795 5595 c-67 -52 -88 -75 -67 -75 6 0 44 23 85 51 50 34 74 56 70
65 -7 20 -10 19 -88 -41z"/>
<path d="M1310 5595 c13 -14 26 -25 28 -25 3 0 -5 11 -18 25 -13 14 -26 25
-28 25 -3 0 5 -11 18 -25z"/>
<path d="M1357 5495 c3 -13 13 -25 23 -28 23 -6 15 30 -10 43 -14 8 -16 5 -13
-15z"/>
<path d="M6595 5430 c-13 -14 -15 -24 -8 -31 8 -8 15 -4 27 12 28 41 14 55
-19 19z"/>
<path d="M6908 5358 c-84 -60 -86 -62 -71 -84 l15 -23 86 57 c48 31 89 58 91
59 7 5 -18 53 -26 52 -5 0 -47 -28 -95 -61z"/>
<path d="M6962 5285 c-80 -54 -92 -67 -72 -80 12 -7 180 81 180 95 0 14 -12
40 -19 40 -3 0 -43 -25 -89 -55z"/>
<path d="M7000 5219 c-47 -27 -86 -53 -87 -57 -2 -4 1 -13 6 -20 7 -11 26 -4
92 33 102 58 94 51 83 74 -8 17 -15 15 -94 -30z"/>
<path d="M7041 5154 c-91 -53 -94 -56 -79 -77 12 -15 20 -13 95 26 70 36 82
45 77 62 -4 11 -9 23 -13 27 -3 3 -39 -13 -80 -38z"/>
<path d="M1622 5111 c-27 -47 -28 -61 -4 -35 16 17 38 74 29 74 -2 0 -13 -17
-25 -39z"/>
<path d="M7063 5068 c-71 -38 -72 -39 -61 -66 7 -15 13 -28 14 -30 2 -4 156
58 166 67 10 9 -19 71 -34 70 -7 -1 -45 -19 -85 -41z"/>
<path d="M1740 5091 c0 -5 7 -12 16 -15 22 -9 24 -8 24 9 0 8 -9 15 -20 15
-11 0 -20 -4 -20 -9z"/>
<path d="M7113 4976 c-40 -18 -75 -35 -79 -38 -3 -4 0 -17 8 -31 l13 -25 75
30 c41 16 79 33 83 37 9 9 -9 61 -20 60 -5 0 -41 -15 -80 -33z"/>
<path d="M1056 4962 c-3 -5 1 -9 9 -9 8 0 12 4 9 9 -3 4 -7 8 -9 8 -2 0 -6 -4
-9 -8z"/>
<path d="M7165 4893 c-114 -45 -105 -38 -92 -72 6 -17 14 -31 17 -31 3 0 39
11 80 23 74 23 75 24 73 56 0 18 -5 36 -10 40 -4 4 -35 -3 -68 -16z"/>
<path d="M1045 4900 c3 -5 8 -10 11 -10 2 0 4 5 4 10 0 6 -5 10 -11 10 -5 0
-7 -4 -4 -10z"/>
<path d="M7169 4782 c-69 -25 -75 -29 -70 -50 7 -28 8 -28 104 -1 58 16 77 26
72 36 -3 8 -5 21 -5 29 0 19 -12 17 -101 -14z"/>
<path d="M7187 4698 c-63 -20 -68 -23 -65 -47 3 -22 8 -26 33 -25 17 1 56 9
88 19 54 15 58 19 55 43 -4 35 -24 36 -111 10z"/>
<path d="M736 4669 c-9 -49 -8 -54 18 -57 13 -1 59 -13 102 -26 43 -14 79 -24
80 -23 1 1 4 19 8 39 l7 37 -88 26 c-48 15 -95 29 -104 31 -12 3 -18 -4 -23
-27z"/>
<path d="M7215 4606 c-56 -18 -71 -27 -73 -44 -2 -13 3 -25 12 -28 19 -7 154
24 162 38 9 15 -5 58 -19 57 -6 -1 -43 -11 -82 -23z"/>
<path d="M716 4578 c-13 -51 -10 -54 84 -79 55 -14 85 -26 78 -31 -10 -6 -8
-8 4 -8 25 0 49 30 46 58 -3 22 -13 28 -93 53 -110 34 -111 34 -119 7z"/>
<path d="M1141 4574 c0 -11 3 -14 6 -6 3 7 2 16 -1 19 -3 4 -6 -2 -5 -13z"/>
<path d="M7237 4513 l-79 -25 7 -61 c4 -34 9 -65 12 -69 2 -5 45 -8 94 -8 l90
0 -5 33 c-3 17 -10 59 -16 91 -5 33 -10 61 -10 63 0 5 -11 2 -93 -24z"/>
<path d="M6610 4317 c0 -25 4 -49 10 -52 6 -4 7 11 3 42 -8 63 -13 67 -13 10z"/>
<path d="M6640 4282 l0 -30 110 -1 110 -2 0 26 0 25 -94 0 c-52 0 -101 3 -110
6 -12 5 -16 -1 -16 -24z"/>
<path d="M7060 4275 c0 -22 4 -25 40 -25 22 0 40 4 40 9 0 28 -14 41 -46 41
-30 0 -34 -3 -34 -25z"/>
<path d="M7060 4086 l0 -123 31 -7 c17 -3 35 -6 39 -6 14 0 22 92 15 176 l-7
84 -39 0 -39 0 0 -124z"/>
<path d="M7195 4072 l0 -127 55 -6 c30 -3 70 -9 88 -13 l32 -8 0 141 0 141
-87 0 -88 0 0 -128z"/>
<path d="M934 4117 c-26 -13 -84 -69 -84 -80 0 -5 9 -20 19 -34 11 -13 17 -32
14 -41 -4 -13 -3 -14 5 -3 5 7 15 10 21 7 17 -11 13 26 -5 53 -15 21 -15 24
12 53 26 27 34 29 74 25 42 -5 71 -25 83 -60 3 -8 10 -5 23 9 15 16 26 19 54
15 l35 -6 -35 -13 c-19 -7 -47 -27 -61 -44 -26 -32 -27 -32 -60 -16 l-33 17
27 6 c34 9 30 29 -5 33 -16 2 -28 11 -31 23 -6 23 -30 25 -47 4 -15 -18 -5
-35 23 -35 22 0 22 -1 -3 -20 -21 -17 -23 -21 -10 -30 13 -8 13 -10 -1 -10
-24 0 -44 -27 -31 -42 5 -7 13 -58 16 -113 18 -270 57 -462 139 -670 31 -79
46 -109 53 -102 2 2 -5 30 -15 63 -47 144 -76 287 -106 531 -17 139 -19 193
-5 193 10 0 14 -15 11 -34 -1 -5 5 -70 14 -145 28 -230 100 -551 125 -551 4 0
13 7 20 15 10 12 8 26 -14 76 -20 47 -24 65 -15 80 8 15 5 33 -9 72 -24 66
-34 117 -23 117 5 0 14 -19 19 -42 27 -112 145 -402 225 -548 94 -174 155
-270 170 -270 7 0 20 7 29 14 16 12 12 21 -45 109 -86 133 -112 176 -112 190
-1 7 -29 69 -63 139 -34 69 -84 190 -112 269 -57 163 -105 385 -84 393 7 3 11
13 10 23 -2 10 -1 12 1 5 4 -10 21 -13 64 -10 33 2 61 -1 64 -7 3 -5 2 1 -1
15 -4 14 -13 29 -22 34 -11 6 -12 10 -2 16 9 6 11 21 6 54 l-7 46 -112 1 c-62
1 -119 2 -127 3 -8 0 -18 -3 -22 -9 -5 -6 -8 -3 -8 7 0 15 14 16 128 15 l127
-2 -3 60 c-1 33 -5 79 -8 102 l-5 41 -82 7 c-157 12 -184 12 -203 2z m226
-321 c0 -7 -8 -16 -19 -19 -14 -3 -18 -12 -15 -33 l4 -29 -9 27 c-5 15 -7 37
-4 48 6 22 43 28 43 6z m-66 -228 c13 -64 15 -88 6 -93 -8 -5 -13 15 -24 93
-2 12 1 22 5 22 5 0 11 -10 13 -22z"/>
<path d="M1431 3959 c2 -104 0 -123 -14 -130 -20 -12 -13 -68 12 -87 9 -7 21
-32 26 -55 10 -41 12 -42 54 -45 l44 -3 -6 31 c-4 17 -12 80 -19 140 l-12 110
30 32 c35 38 43 87 19 112 -12 11 -34 16 -76 16 l-60 0 2 -121z"/>
<path d="M7178 3914 c-5 -4 -8 -35 -8 -68 -1 -34 -5 -80 -9 -103 l-8 -42 51
-6 c28 -3 69 -8 92 -11 51 -7 51 -7 60 126 l7 100 -39 0 c-21 0 -61 3 -89 6
-27 3 -53 3 -57 -2z"/>
<path d="M1592 3705 c0 -11 4 -31 8 -45 6 -20 8 -21 8 -5 0 11 -4 31 -8 45 -6
20 -8 21 -8 5z"/>
<path d="M1157 3643 c9 -85 49 -235 103 -378 28 -77 55 -144 60 -148 9 -10
120 21 120 32 0 5 -31 87 -68 182 -64 161 -69 179 -68 246 1 40 -2 73 -6 73
-4 0 -10 9 -13 20 -5 17 -15 20 -69 20 l-64 0 5 -47z"/>
<path d="M7144 3648 c-3 -16 -3 -32 0 -35 3 -3 42 -12 88 -19 89 -14 98 -11
98 33 0 23 0 24 -122 41 l-57 9 -7 -29z"/>
<path d="M1427 3624 c-13 -13 -8 -37 33 -164 64 -204 72 -221 95 -214 20 5 20
5 1 -10 -16 -13 -18 -21 -10 -44 11 -32 39 -36 39 -5 0 14 16 33 43 53 23 16
42 32 42 35 0 3 -11 32 -24 65 -13 32 -23 60 -21 62 8 8 14 62 7 72 -3 6 -7
17 -9 25 -6 41 -15 61 -23 56 -6 -4 -7 -12 -3 -18 4 -7 6 -20 4 -31 -2 -13 1
-16 11 -11 10 6 11 5 1 -5 -18 -19 -22 -11 -42 67 l-17 68 -60 3 c-33 2 -63 0
-67 -4z"/>
<path d="M798 3491 c-31 -3 -59 -8 -61 -11 -3 -3 -2 -20 0 -38 4 -24 10 -31
22 -28 9 3 53 10 99 17 82 11 90 17 76 53 -7 17 -31 18 -136 7z"/>
<path d="M1645 3425 c0 -32 10 -40 13 -10 1 13 -2 26 -6 29 -4 2 -8 -6 -7 -19z"/>
<path d="M812 3398 c-62 -10 -64 -11 -57 -36 3 -15 13 -34 22 -42 9 -8 13 -10
10 -4 -5 8 19 16 73 25 95 15 104 20 95 48 -7 24 -34 26 -143 9z"/>
<path d="M905 3323 c-11 -2 -44 -9 -73 -14 -52 -10 -53 -12 -47 -37 4 -15 8
-28 10 -30 5 -5 185 30 189 37 2 3 0 16 -5 29 -8 22 -27 26 -74 15z"/>
<path d="M893 3232 c-72 -14 -83 -19 -83 -37 1 -47 12 -50 106 -26 49 12 90
23 91 25 6 6 -16 56 -24 55 -5 -1 -45 -9 -90 -17z"/>
<path d="M910 3141 c-79 -18 -84 -25 -59 -72 8 -15 16 -15 91 7 46 13 86 24
90 24 4 0 2 14 -3 30 -12 34 -15 35 -119 11z"/>
<path d="M1395 3099 c-16 -5 -38 -7 -47 -5 -10 2 -21 -1 -25 -6 -4 -7 -1 -8 7
-3 10 6 12 4 7 -8 -3 -10 -3 -17 1 -17 4 0 25 -34 46 -75 21 -41 43 -75 48
-75 5 0 6 -5 3 -10 -7 -11 123 -228 150 -250 12 -10 20 -7 46 15 29 23 33 25
41 10 10 -17 -5 -45 -24 -45 -5 0 -34 -17 -63 -37 -53 -37 -53 -38 -39 -65 8
-15 17 -28 20 -28 3 0 31 17 62 39 31 21 72 46 90 55 17 9 32 24 32 34 0 15
-148 252 -182 292 -7 8 -33 54 -58 102 -48 93 -52 96 -115 77z"/>
<path d="M1188 3072 c-10 -2 -18 -9 -18 -15 0 -23 152 -312 214 -406 35 -53
69 -107 76 -121 7 -13 19 -30 25 -37 7 -6 51 -68 99 -137 162 -232 379 -443
726 -705 367 -277 768 -448 1202 -511 161 -24 148 -24 148 -1 0 27 -4 29 -121
46 -371 55 -715 184 -1044 391 -193 122 -524 405 -665 570 -47 54 -108 122
-136 149 -60 59 -109 125 -189 255 -32 52 -81 133 -110 180 -29 47 -82 143
-119 215 -37 71 -68 130 -69 130 -1 1 -10 0 -19 -3z"/>
<path d="M940 3048 c-36 -12 -67 -22 -69 -24 -5 -5 20 -64 28 -64 8 0 165 52
170 56 2 2 -1 15 -7 29 -14 30 -32 31 -122 3z"/>
<path d="M1126 3012 c-7 -11 22 -67 31 -58 2 2 -2 19 -10 37 -8 21 -16 29 -21
21z"/>
<path d="M1050 2985 c-14 -8 -47 -22 -75 -31 -27 -9 -54 -20 -58 -24 -8 -7 11
-60 22 -60 4 0 39 14 80 31 40 17 79 28 86 25 11 -4 11 1 3 24 -14 42 -29 51
-58 35z"/>
<path d="M1160 2933 c1 -19 129 -248 140 -251 7 -3 11 -1 8 4 -3 5 -36 64 -72
132 -62 112 -77 135 -76 115z"/>
<path d="M1035 2875 c-43 -18 -81 -37 -82 -42 -2 -5 3 -17 10 -27 13 -18 17
-17 98 15 46 18 86 35 88 36 7 5 -18 53 -26 52 -5 0 -44 -16 -88 -34z"/>
<path d="M1885 2900 c-3 -5 -1 -10 4 -10 6 0 11 5 11 10 0 6 -2 10 -4 10 -3 0
-8 -4 -11 -10z"/>
<path d="M1076 2795 c-44 -19 -81 -37 -83 -39 -4 -3 12 -42 22 -54 1 -1 35 13
76 33 40 19 79 35 86 35 7 0 13 2 13 5 0 10 -24 55 -29 55 -3 0 -42 -16 -85
-35z"/>
<path d="M1105 2713 c-38 -19 -71 -36 -73 -38 -4 -4 27 -65 32 -65 2 0 24 9
50 21 66 29 76 19 16 -16 -27 -16 -50 -34 -50 -40 0 -5 8 -22 18 -37 l18 -28
65 43 c88 59 89 60 89 47 0 -5 -31 -33 -70 -61 -38 -28 -70 -56 -70 -62 0 -26
193 -317 210 -317 3 0 35 27 72 60 45 41 69 56 74 48 5 -7 -9 -25 -36 -47
-104 -85 -107 -88 -88 -107 16 -17 21 -14 95 41 43 33 80 60 81 61 2 2 -27 54
-64 116 -71 120 -121 181 -137 171 -6 -3 -7 -1 -3 6 4 7 -16 51 -47 104 -30
51 -60 102 -66 115 -15 29 -32 27 -116 -15z m281 -369 c-30 -21 -42 -17 -15 5
13 11 26 17 29 14 3 -2 -4 -11 -14 -19z m-68 -41 c-15 -15 -30 -25 -33 -22 -7
8 33 49 48 49 6 0 -1 -12 -15 -27z m106 -1 c-12 -9 -42 -34 -66 -54 -48 -40
-61 -46 -52 -25 2 7 22 23 44 37 21 13 36 28 33 33 -7 12 16 27 42 27 20 0 19
-1 -1 -18z"/>
<path d="M7070 2736 c0 -2 7 -6 15 -10 8 -3 15 -1 15 4 0 6 -7 10 -15 10 -8 0
-15 -2 -15 -4z"/>
<path d="M7060 2669 c0 -5 5 -7 10 -4 6 3 10 8 10 11 0 2 -4 4 -10 4 -5 0 -10
-5 -10 -11z"/>
<path d="M1310 2658 c0 -9 5 -20 10 -23 13 -8 13 5 0 25 -8 13 -10 13 -10 -2z"/>
<path d="M1330 2616 c0 -2 8 -10 18 -17 15 -13 16 -12 3 4 -13 16 -21 21 -21
13z"/>
<path d="M1683 2545 l-91 -67 50 -69 c28 -38 54 -71 57 -74 4 -2 33 17 65 42
41 33 60 43 68 35 11 -11 2 -20 -74 -82 l-22 -17 44 -54 c132 -158 215 -239
445 -436 298 -255 677 -457 1029 -548 160 -41 166 -42 159 -15 -3 11 0 20 6
20 6 0 11 -11 11 -25 0 -20 5 -25 25 -25 14 0 28 0 33 0 4 0 12 49 18 110 10
103 17 130 29 118 3 -2 0 -55 -6 -117 -6 -62 -8 -115 -5 -118 18 -18 366 -43
366 -26 0 5 -25 33 -55 62 -47 45 -58 51 -71 40 -11 -9 -18 -9 -26 -1 -18 18
36 99 80 118 36 16 37 16 12 24 -14 4 -90 13 -170 20 -170 13 -418 61 -506 96
-33 13 -71 24 -83 24 -25 0 -94 54 -83 65 3 3 0 3 -8 0 -9 -3 -59 21 -115 56
-55 34 -129 78 -165 98 -36 21 -85 52 -110 70 l-45 32 -20 -27 c-11 -14 -37
-43 -58 -64 l-38 -38 43 -37 c24 -20 64 -49 90 -65 l47 -29 27 47 c34 60 54
83 65 76 5 -3 -9 -32 -32 -65 -23 -33 -40 -61 -38 -63 2 -2 28 -18 57 -36 37
-23 60 -30 77 -26 13 3 26 2 29 -3 3 -5 15 -11 26 -14 11 -3 18 -1 14 4 -9 15
23 10 39 -6 8 -8 18 -11 21 -7 4 4 3 -6 -3 -21 -10 -25 -8 -28 23 -41 45 -19
130 -43 210 -60 l67 -14 25 45 c31 52 42 51 20 -2 -17 -39 -14 -55 8 -55 8 0
20 -7 27 -16 13 -15 11 -16 -21 -10 -19 3 -46 8 -60 10 -46 6 -194 47 -265 73
-148 55 -473 239 -532 302 -10 10 -47 42 -83 70 -36 29 -107 93 -158 143 l-92
91 22 26 c13 14 24 28 26 30 1 2 5 1 8 -2 4 -4 0 -17 -9 -31 -16 -23 -15 -25
36 -72 87 -81 190 -170 258 -222 14 -10 23 -3 63 49 26 33 49 66 51 72 2 7
-57 57 -130 111 -143 107 -452 388 -519 472 -23 28 -52 66 -66 83 l-25 32 -92
-66z m681 -616 c-38 -39 -43 -28 -9 18 17 22 31 31 33 24 2 -7 -8 -26 -24 -42z
m414 -222 c9 -10 5 -21 -16 -47 -25 -29 -31 -31 -50 -21 -27 15 -27 25 -1 67
21 35 39 35 67 1z"/>
<path d="M1430 2471 c0 -10 102 -178 142 -234 11 -16 16 -32 12 -36 -5 -5 -46
-36 -91 -70 -46 -34 -83 -66 -83 -70 0 -5 7 -14 15 -21 12 -10 32 0 115 60 55
39 102 76 105 81 5 7 -71 123 -168 255 -31 42 -47 54 -47 35z"/>
<path d="M5903 2396 l-18 -21 24 20 c13 11 25 19 28 17 3 -2 7 -2 9 1 2 2 -3
4 -11 4 -8 0 -23 -10 -32 -21z"/>
<path d="M5705 2215 c-22 -19 -34 -35 -26 -35 8 0 -3 -16 -25 -36 -33 -30 -29
-28 21 9 33 25 69 55 80 68 11 13 13 18 5 12 -20 -18 -35 -16 -20 2 20 24 8
17 -35 -20z m10 -15 c-10 -11 -21 -18 -23 -15 -3 3 3 12 14 20 27 20 30 18 9
-5z"/>
<path d="M1567 2079 c-97 -71 -107 -82 -95 -97 36 -46 33 -46 125 26 55 44 91
66 95 59 10 -16 5 -21 -83 -88 -77 -58 -80 -62 -63 -80 13 -15 20 -16 34 -6
35 25 189 152 189 157 0 3 -21 29 -47 57 l-47 53 -108 -81z"/>
<path d="M6645 2070 c-3 -5 -8 -19 -10 -31 -3 -16 -1 -18 9 -10 7 6 16 8 19 4
4 -3 7 -1 7 6 0 7 5 9 11 5 8 -4 8 0 0 15 -13 23 -26 27 -36 11z m25 -9 c0 -5
-7 -11 -14 -14 -10 -4 -13 -1 -9 9 6 15 23 19 23 5z"/>
<path d="M1686 1939 c-95 -78 -97 -81 -80 -100 15 -16 20 -17 33 -6 9 8 50 42
91 77 41 34 79 66 84 71 9 8 -9 39 -24 39 -3 0 -50 -36 -104 -81z"/>
<path d="M1751 1884 c-50 -41 -93 -80 -97 -86 -4 -5 3 -19 14 -30 l20 -21 101
93 c78 73 98 97 89 107 -19 23 -35 15 -127 -63z"/>
<path d="M3981 1924 c0 -11 3 -14 6 -6 3 7 2 16 -1 19 -3 4 -6 -2 -5 -13z"/>
<path d="M1817 1824 c-53 -47 -97 -88 -97 -93 0 -5 7 -14 15 -21 12 -10 18
-10 30 0 19 16 40 3 25 -15 -12 -15 -6 -35 10 -35 5 0 44 30 87 67 43 37 86
73 96 82 15 13 20 13 27 2 6 -10 -4 -24 -33 -49 -78 -64 -148 -134 -144 -145
2 -6 11 -15 20 -21 14 -9 27 -1 74 44 113 108 131 122 143 115 8 -5 -20 -39
-81 -101 -51 -51 -91 -95 -88 -97 2 -1 11 -8 20 -15 14 -11 30 0 109 73 51 47
99 85 108 85 20 0 7 -15 -93 -112 -74 -71 -79 -77 -62 -90 17 -13 25 -7 90 61
40 42 80 82 90 89 10 8 17 20 15 26 -2 7 -62 63 -134 123 l-131 111 -96 -84z
m113 36 c0 -11 -7 -20 -15 -20 -18 0 -19 12 -3 28 16 16 18 15 18 -8z"/>
<path d="M4032 1870 c0 -14 2 -19 5 -12 2 6 2 18 0 25 -3 6 -5 1 -5 -13z"/>
<path d="M5804 1668 c-66 -51 -339 -234 -359 -241 -6 -2 -3 -12 6 -23 9 -10
40 -65 70 -121 30 -57 56 -103 59 -103 3 0 16 9 29 19 l24 19 -55 93 c-74 126
-80 137 -69 143 5 3 41 -44 80 -104 39 -61 77 -110 84 -110 6 0 19 5 27 10 17
11 18 9 -74 154 -31 49 -54 91 -51 94 9 9 38 -23 90 -103 29 -44 62 -88 73
-98 18 -17 20 -17 42 1 l23 19 -71 106 c-40 59 -72 109 -72 112 0 3 6 5 13 5
7 0 46 -47 86 -104 73 -104 74 -105 97 -89 13 8 24 19 24 24 0 5 -34 54 -75
110 -41 55 -75 105 -75 110 0 25 26 0 101 -93 45 -57 84 -104 88 -105 3 -2 19
8 35 21 l30 23 -46 59 c-56 73 -88 125 -88 142 0 8 31 -27 70 -76 38 -50 74
-93 80 -97 12 -7 50 12 50 26 0 8 -48 71 -175 227 -1 1 -33 -22 -71 -50z"/>
<path d="M4790 1654 c-149 -51 -331 -91 -508 -114 -90 -11 -170 -20 -178 -20
-19 0 -18 -13 4 -38 16 -20 20 -20 67 -8 28 8 109 19 180 26 188 17 539 106
584 146 7 6 -31 44 -43 42 -6 0 -54 -16 -106 -34z"/>
<path d="M2116 1564 c-83 -89 -88 -96 -72 -112 15 -15 23 -10 113 80 93 93 97
98 78 112 -11 9 -22 15 -25 15 -3 0 -45 -43 -94 -95z"/>
<path d="M2176 1514 c-85 -90 -88 -95 -70 -109 10 -8 21 -15 24 -15 5 0 76 72
149 152 29 31 32 40 21 53 -7 8 -18 15 -24 14 -6 -1 -51 -43 -100 -95z"/>
<path d="M4053 1603 c-19 -7 -16 -53 2 -53 10 0 15 10 15 30 0 17 -1 30 -2 29
-2 0 -9 -3 -15 -6z"/>
<path d="M2330 1561 c0 -5 -36 -47 -80 -95 -44 -47 -80 -90 -80 -95 0 -5 7
-14 15 -21 13 -11 18 -10 28 3 70 93 137 160 137 139 0 -5 -29 -42 -65 -83
-36 -40 -65 -77 -65 -80 0 -7 31 -22 35 -17 0 2 33 44 71 93 39 50 73 95 77
101 4 7 -10 23 -33 38 -22 14 -40 22 -40 17z"/>
<path d="M2358 1397 c-76 -101 -77 -102 -56 -119 11 -10 23 -18 27 -18 5 0 47
57 146 196 7 10 4 18 -10 28 -11 9 -22 15 -25 15 -3 1 -40 -45 -82 -102z"/>
<path d="M3875 1421 c-44 -38 -80 -73 -80 -78 0 -14 143 -143 160 -143 13 0
15 21 15 145 0 80 -3 145 -7 145 -5 0 -44 -32 -88 -69z"/>
<path d="M4385 1478 c-9 -6 -208 -38 -233 -38 -2 0 10 -19 27 -42 17 -23 31
-51 31 -63 0 -12 -22 -46 -50 -77 -27 -31 -50 -59 -50 -63 0 -8 191 2 223 11
11 4 16 12 13 27 -13 60 -17 137 -7 137 5 0 13 -36 17 -80 l7 -81 46 6 c111
15 151 26 151 43 0 9 -7 64 -16 122 l-17 105 -64 0 c-35 0 -70 -3 -78 -7z"/>
<path d="M4050 1451 c0 -6 11 -27 25 -47 30 -44 31 -66 6 -119 l-19 -40 -1 73
c-1 41 -5 72 -11 72 -15 0 -13 -157 2 -166 16 -10 98 84 98 112 0 23 -41 81
-77 108 -13 9 -23 12 -23 7z"/>
<path d="M2433 1347 l-72 -102 22 -17 c29 -23 34 -23 51 10 8 15 39 62 70 106
31 43 56 80 54 81 -6 5 -47 25 -50 25 -2 -1 -35 -47 -75 -103z"/>
<path d="M2514 1304 c-64 -101 -67 -107 -49 -120 33 -24 28 -28 120 114 l53
82 -28 15 -28 15 -68 -106z"/>
<path d="M5389 1395 l-25 -14 58 -117 c31 -64 59 -119 62 -121 4 -4 43 13 55
23 5 5 -112 243 -119 243 -3 0 -17 -6 -31 -14z"/>
<path d="M5317 1354 c-33 -18 -35 -7 30 -156 l47 -106 28 14 c15 8 28 18 28
23 0 4 -19 50 -43 102 -24 52 -47 104 -53 116 -8 20 -11 21 -37 7z"/>
<path d="M2590 1254 c-50 -84 -60 -108 -49 -115 31 -19 46 -6 106 94 56 91 60
103 46 115 -9 6 -22 12 -28 12 -6 0 -40 -48 -75 -106z"/>
<path d="M2692 1252 c-23 -42 -51 -91 -62 -109 l-21 -32 28 -15 29 -14 44 81
c24 45 52 94 62 109 l19 27 -29 15 -28 14 -42 -76z"/>
<path d="M5219 1310 c-14 -8 -11 -24 34 -134 l50 -124 28 10 c16 5 29 13 29
16 0 4 -21 60 -47 124 -47 119 -56 130 -94 108z"/>
<path d="M2758 1188 c-65 -126 -64 -124 -36 -131 28 -8 26 -9 78 88 23 44 49
88 58 98 8 9 13 19 11 21 -7 6 -48 26 -53 26 -3 0 -29 -46 -58 -102z"/>
<path d="M5148 1278 c-16 -5 -28 -13 -28 -18 0 -13 82 -224 91 -234 5 -6 18
-5 34 2 l25 11 -34 93 c-57 157 -57 157 -88 146z"/>
<path d="M2832 1144 c-29 -59 -52 -107 -50 -108 14 -8 61 -26 63 -24 2 2 26
50 54 108 48 97 50 106 34 117 -35 26 -48 15 -101 -93z"/>
<path d="M5053 1240 l-22 -9 28 -73 c15 -40 35 -94 45 -120 13 -35 23 -48 37
-48 11 0 22 6 25 14 6 16 -69 239 -82 242 -5 2 -19 -1 -31 -6z"/>
<path d="M2966 1194 c-4 -15 -25 -63 -47 -106 -21 -44 -39 -83 -39 -87 0 -4
16 -13 36 -19 32 -9 36 -9 43 11 5 12 26 64 46 115 21 51 35 95 33 97 -2 3
-18 8 -35 11 -27 5 -31 3 -37 -22z"/>
<path d="M4978 1213 c-22 -5 -22 3 3 -79 36 -116 60 -174 72 -174 37 1 37 16
-4 138 -22 67 -44 121 -47 121 -4 -1 -15 -3 -24 -6z"/>
<path d="M4902 1193 c-13 -3 -22 -10 -19 -16 2 -7 19 -64 37 -127 19 -63 35
-117 37 -119 2 -2 14 1 28 7 24 11 24 12 9 59 -8 26 -24 83 -36 126 -12 42
-24 76 -27 76 -3 -1 -16 -4 -29 -6z"/>
<path d="M3036 1108 c-15 -46 -34 -98 -42 -116 -14 -31 -13 -33 12 -42 15 -6
28 -9 30 -7 2 1 21 54 44 117 31 88 38 115 28 122 -32 20 -44 7 -72 -74z"/>
<path d="M4833 1173 c-13 -2 -23 -10 -23 -16 1 -19 58 -238 64 -244 10 -10 55
7 51 20 -21 58 -64 231 -59 238 3 5 2 8 -3 8 -4 -1 -18 -4 -30 -6z"/>
<path d="M3126 1103 c-11 -38 -29 -90 -39 -116 -17 -41 -18 -50 -6 -58 35 -22
46 -10 69 72 12 44 27 97 35 119 13 36 12 38 -8 44 -12 3 -24 6 -27 6 -3 0
-14 -30 -24 -67z"/>
<path d="M3693 1153 c-11 -30 6 -43 55 -43 27 0 90 -3 140 -6 l92 -7 0 27 c0
15 -6 29 -12 31 -7 2 -71 5 -142 7 -96 2 -130 0 -133 -9z"/>
<path d="M4758 1153 c-23 -6 -23 -25 3 -155 17 -84 25 -108 38 -108 38 1 40
12 16 120 -13 58 -24 115 -25 128 0 22 -2 23 -32 15z"/>
<path d="M3210 1108 c-6 -24 -20 -76 -31 -117 -22 -76 -18 -96 17 -89 14 2 24
27 45 118 15 63 25 118 23 122 -3 5 -14 8 -24 8 -14 0 -22 -11 -30 -42z"/>
<path d="M4661 1131 c-11 -7 -11 -25 3 -112 28 -169 23 -156 57 -151 27 4 30
8 26 31 -3 14 -13 74 -23 134 -18 109 -26 121 -63 98z"/>
<path d="M3294 1103 c-3 -16 -16 -69 -29 -120 -12 -51 -20 -95 -17 -98 3 -3
16 -5 28 -5 26 0 24 -5 53 140 15 71 16 97 8 102 -23 14 -37 8 -43 -19z"/>
<path d="M4583 1063 c17 -155 29 -213 47 -213 9 0 19 2 21 5 3 2 0 46 -7 97
-8 51 -14 110 -16 131 -2 32 -5 37 -26 37 -24 0 -25 -2 -19 -57z"/>
<path d="M3355 993 c-10 -65 -17 -120 -17 -123 1 -3 12 -5 24 -5 21 0 24 8 39
85 9 47 19 102 23 123 7 36 6 37 -22 37 l-28 0 -19 -117z"/>
<path d="M4432 1098 l-64 -10 6 -76 c17 -205 16 -202 38 -202 20 0 21 3 14
115 l-6 115 39 0 c43 0 42 2 57 -143 7 -68 7 -68 33 -62 14 4 26 7 27 8 1 2
-23 179 -32 235 -6 36 -6 36 -112 20z"/>
<path d="M3456 1078 c-17 -80 -36 -220 -31 -228 4 -6 16 -10 29 -10 21 0 23 7
35 93 14 111 20 137 32 137 12 0 11 -49 -3 -148 -6 -45 -9 -84 -7 -86 2 -2 14
-6 25 -10 20 -6 22 -1 34 104 9 82 16 110 27 110 11 0 12 -14 6 -77 -12 -130
-11 -148 13 -151 19 -3 22 3 27 50 4 29 7 73 7 98 0 60 9 90 27 90 12 0 13
-15 8 -97 -12 -158 -13 -148 16 -151 24 -3 27 1 33 44 3 26 6 86 6 135 l0 88
-32 5 c-41 6 -223 26 -237 26 -6 0 -13 -10 -15 -22z"/>
<path d="M4286 1028 c2 -29 6 -93 10 -141 l6 -88 26 3 c18 2 27 9 26 21 0 9
-1 71 -2 137 l-2 120 -34 0 -35 0 5 -52z"/>
<path d="M3776 1055 c-3 -9 -6 -73 -6 -141 l0 -124 25 0 25 0 0 130 c0 72 1
133 3 138 5 15 -41 13 -47 -3z"/>
<path d="M3860 946 c0 -68 -3 -131 -6 -140 -5 -14 4 -16 60 -16 l66 0 0 29 c0
16 7 34 15 41 15 13 21 50 7 50 -4 0 -13 -9 -20 -20 -14 -24 -62 -28 -62 -5 0
8 6 15 13 15 31 0 47 35 47 103 l0 67 -60 0 -60 0 0 -124z"/>
<path d="M4200 998 c0 -40 3 -104 7 -141 5 -62 8 -68 27 -65 20 3 21 9 24 141
l3 137 -31 0 -30 0 0 -72z"/>
<path d="M4460 931 c0 -44 3 -86 6 -95 9 -23 35 -8 29 18 -2 11 -7 51 -10 89
-4 37 -11 67 -16 67 -5 0 -9 -36 -9 -79z"/>
<path d="M4052 893 c-10 -4 -10 -8 -1 -19 16 -19 4 -44 -21 -44 -13 0 -20 -7
-20 -20 0 -17 7 -20 39 -20 35 0 39 3 45 31 3 17 6 38 6 45 0 16 -30 33 -48
27z"/>
<path d="M4688 6863 c7 -3 16 -2 19 1 4 3 -2 6 -13 5 -11 0 -14 -3 -6 -6z"/>
<path d="M5829 6523 c-13 -16 -12 -17 4 -4 9 7 17 15 17 17 0 8 -8 3 -21 -13z"/>
<path d="M5285 6500 c3 -5 8 -10 11 -10 2 0 4 5 4 10 0 6 -5 10 -11 10 -5 0
-7 -4 -4 -10z"/>
<path d="M4490 6240 c0 -5 5 -10 10 -10 6 0 10 5 10 10 0 6 -4 10 -10 10 -5 0
-10 -4 -10 -10z"/>
<path d="M4526 6241 c9 -9 45 -11 39 -2 -3 6 -14 9 -25 8 -10 -1 -17 -3 -14
-6z"/>
<path d="M4588 6223 c7 -3 16 -2 19 1 4 3 -2 6 -13 5 -11 0 -14 -3 -6 -6z"/>
<path d="M4668 6203 c7 -3 16 -2 19 1 4 3 -2 6 -13 5 -11 0 -14 -3 -6 -6z"/>
<path d="M4830 6165 c46 -18 64 -17 25 0 -16 8 -37 14 -45 14 -8 0 1 -7 20
-14z"/>
<path d="M5106 6031 c-4 -5 -2 -12 3 -15 5 -4 12 -2 15 3 4 5 2 12 -3 15 -5 4
-12 2 -15 -3z"/>
<path d="M5910 6166 c0 -2 8 -10 18 -17 15 -13 16 -12 3 4 -13 16 -21 21 -21
13z"/>
<path d="M3814 5434 c-324 -248 -536 -449 -641 -610 -32 -49 -71 -106 -87
-126 -26 -34 -28 -46 -37 -175 -5 -76 -10 -359 -11 -629 l-3 -491 28 20 c26
20 27 23 27 119 0 55 4 97 8 94 5 -3 12 -51 16 -107 6 -99 8 -104 44 -148 58
-72 140 -151 168 -161 14 -6 97 -10 184 -10 l159 0 176 -111 175 -111 68 43
c37 24 87 62 112 85 25 23 56 45 70 49 14 4 33 15 44 24 15 13 46 16 200 16
99 0 186 2 192 3 6 1 26 23 45 50 18 26 66 86 106 134 l73 86 0 125 c0 91 3
126 13 129 9 4 12 112 13 492 1 395 -1 486 -11 482 -8 -3 -55 46 -117 121 -77
93 -152 168 -294 292 -190 166 -519 443 -533 449 -5 1 -89 -59 -187 -134z
m206 -166 c0 -5 -4 -7 -9 -4 -4 3 -24 -11 -43 -32 -60 -65 -380 -322 -401
-322 -20 0 65 80 169 158 116 89 275 232 256 232 -6 0 -12 6 -12 13 1 14 40
-30 40 -45z m232 -217 c18 -10 49 -27 68 -39 19 -11 51 -25 71 -31 20 -6 49
-25 64 -41 22 -23 38 -30 67 -30 22 0 38 -5 38 -11 0 -8 -16 -10 -52 -5 -29 3
-65 6 -80 6 -21 0 -47 18 -100 68 -40 38 -84 76 -98 85 -33 23 -19 22 22 -2z
m-732 -41 c-8 -5 -22 -9 -30 -9 -10 0 -8 3 5 9 27 12 43 12 25 0z m-220 -191
c-8 -27 -39 -63 -48 -55 -4 4 20 70 31 83 16 21 26 4 17 -28z m1055 -78 c62
-10 265 -60 285 -71 8 -4 23 -20 32 -36 16 -29 16 -30 -17 -69 -33 -39 -34
-39 -54 -21 -17 16 -42 19 -158 23 -94 3 -174 12 -250 29 -62 13 -124 24 -139
24 l-27 0 24 -26 c32 -35 252 -183 293 -197 31 -11 103 -47 163 -83 l33 -19 0
-189 0 -190 -68 74 -68 74 -155 -92 c-85 -50 -159 -95 -165 -99 -8 -5 -14 -67
-17 -181 l-5 -173 47 38 c25 20 79 65 118 100 76 65 69 62 278 122 39 11 93
36 122 56 43 29 61 35 103 35 54 0 63 -10 27 -29 -13 -7 -51 -45 -84 -84 -49
-59 -69 -75 -109 -88 -27 -9 -67 -24 -89 -32 -22 -9 -59 -16 -82 -17 -48 0
-95 -34 -203 -144 l-64 -66 -96 0 -95 1 -75 89 c-84 101 -67 92 -285 141 -153
35 -194 54 -255 117 -25 26 -63 61 -85 79 -38 30 -39 32 -15 32 23 1 172 -37
213 -54 16 -7 17 10 17 262 l0 270 84 27 c47 15 127 52 184 87 101 60 192 132
181 143 -3 3 -39 9 -80 12 -56 5 -89 2 -134 -11 -33 -10 -100 -21 -150 -24
-100 -7 -94 -4 -256 -130 -67 -53 -80 -60 -74 -40 23 73 49 131 87 189 l43 64
70 13 c39 7 131 28 205 48 l135 36 280 -6 c154 -4 303 -10 330 -14z m395 -274
c-17 -59 -21 -40 -7 38 10 58 13 64 15 35 2 -19 -2 -52 -8 -73z m15 -49 c-28
-56 -45 -79 -45 -61 0 15 40 104 54 119 22 24 17 -6 -9 -58z m10 -649 c6 -31
-20 -191 -41 -252 -9 -26 -14 -61 -12 -77 2 -16 2 -28 -2 -27 -3 1 -22 -16
-41 -38 -108 -124 -134 -112 -44 23 31 45 59 82 64 82 4 0 11 30 15 68 6 61
30 176 43 212 4 8 5 22 4 30 -5 25 9 5 14 -21z m-1495 -269 c0 -23 7 -32 38
-47 34 -16 37 -22 38 -61 1 -27 9 -54 23 -72 11 -16 21 -31 21 -34 0 -2 -15
-4 -34 -3 -30 2 -33 4 -25 24 5 14 4 25 -3 29 -7 5 -8 2 -4 -7 4 -8 0 -5 -9 6
-39 47 -64 104 -71 160 -6 55 -6 59 10 46 9 -7 16 -26 16 -41z m1305 -230 c8
-13 -75 -13 -95 0 -11 7 0 10 37 10 28 0 55 -4 58 -10z"/>
<path d="M3822 4380 c-67 -50 -122 -94 -122 -98 0 -5 76 -68 170 -140 l170
-132 142 82 c79 45 145 83 147 84 14 11 -25 66 -70 100 -96 73 -282 194 -299
194 -9 0 -71 -41 -138 -90z"/>
<path d="M3556 4168 c-3 -18 -7 -104 -9 -190 -4 -174 -6 -168 63 -168 75 0 99
-12 227 -115 l128 -103 6 36 c4 21 9 96 12 168 l6 131 -203 136 c-112 76 -209
137 -214 137 -6 0 -13 -15 -16 -32z"/>
<path d="M5055 4297 c0 -238 -4 -496 -8 -574 -4 -79 -4 -143 0 -143 5 1 22 18
38 39 17 21 57 69 90 106 l60 68 5 361 c3 199 3 366 0 372 -3 6 -45 54 -95
107 l-90 96 0 -432z"/>
<path d="M2857 4601 l-104 -101 3 -350 2 -350 40 -48 c22 -26 65 -85 97 -132
l58 -85 -7 525 c-5 440 -4 534 8 580 8 30 13 57 10 59 -2 2 -50 -42 -107 -98z"/>
<path d="M4385 2821 c-3 -5 -2 -12 3 -15 5 -3 9 1 9 9 0 17 -3 19 -12 6z"/>
</g>
</svg>
