<svg width="148" height="30" viewBox="0 0 148 30" fill="none" xmlns="http://www.w3.org/2000/svg">
<g clip-path="url(#clip0_102_142)">
<path fill-rule="evenodd" clip-rule="evenodd" d="M142.852 22.0283C142.941 23.0375 143.748 24.322 145.147 24.322H145.965C146.283 24.322 146.542 24.0621 146.542 23.7446V5.74887H146.539C146.523 5.44569 146.272 5.20287 145.965 5.20287H143.43C143.123 5.20287 142.872 5.44569 142.856 5.74887H142.852V7.21112C141.299 5.29625 138.85 4.50146 136.394 4.50146C130.811 4.50146 126.286 9.03063 126.286 14.6179C126.286 20.2056 130.811 24.7348 136.394 24.7348V24.7354C138.85 24.7354 141.527 23.7817 142.852 22.026V22.0283ZM136.403 21.1942C132.853 21.1942 129.975 18.2502 129.975 14.6179C129.975 10.9864 132.853 8.04221 136.403 8.04221C139.955 8.04221 142.833 10.9864 142.833 14.6179C142.833 18.2502 139.955 21.1942 136.403 21.1942Z" fill="#292929"/>
<path fill-rule="evenodd" clip-rule="evenodd" d="M123.08 22.6471L123.079 13.3351H123.079C123.079 8.08586 119.77 4.54468 114.494 4.54468C111.975 4.54468 109.91 6.00234 109.181 7.2545C109.023 6.27541 108.504 5.24624 106.893 5.24624H106.072C105.754 5.24624 105.495 5.50641 105.495 5.82388V22.0733C105.495 22.0738 105.495 22.075 105.495 22.0758V23.8213H105.498C105.515 24.124 105.766 24.367 106.072 24.367H108.608C108.647 24.367 108.685 24.3624 108.721 24.3553C108.738 24.352 108.754 24.3454 108.77 24.3408C108.789 24.335 108.809 24.3305 108.827 24.3231C108.849 24.3137 108.87 24.3012 108.891 24.2895C108.901 24.2831 108.912 24.2788 108.922 24.2722C108.947 24.2558 108.97 24.2362 108.992 24.2162C108.996 24.2125 109.001 24.21 109.004 24.2065C109.029 24.1821 109.052 24.1552 109.073 24.1273C109.073 24.1269 109.073 24.1269 109.073 24.1269C109.136 24.0397 109.175 23.9346 109.181 23.8213H109.185V13.1906C109.185 10.3715 111.468 8.08585 114.286 8.08585C117.103 8.08585 119.387 10.3715 119.387 13.1906L119.389 22.0764L119.39 22.0733C119.39 22.0812 119.391 22.0892 119.391 22.0977V23.8213H119.394C119.411 24.124 119.661 24.367 119.968 24.367H122.504C122.543 24.367 122.58 24.3624 122.617 24.3553C122.632 24.3525 122.646 24.3465 122.661 24.3424C122.682 24.3363 122.703 24.3312 122.723 24.3231C122.744 24.3145 122.762 24.3025 122.782 24.2915C122.794 24.2847 122.807 24.2799 122.818 24.2722C122.841 24.2568 122.863 24.2382 122.884 24.2198C122.889 24.2148 122.895 24.2111 122.9 24.2061C122.924 24.1829 122.946 24.1579 122.965 24.1316C122.967 24.1296 122.968 24.1281 122.97 24.1261C123.032 24.0397 123.071 23.9354 123.077 23.8227C123.077 23.8219 123.077 23.8213 123.077 23.8213H123.081V22.6474L123.08 22.6471Z" fill="#292929"/>
<path fill-rule="evenodd" clip-rule="evenodd" d="M96.6736 22.0283C96.7623 23.0375 97.5695 24.322 98.9681 24.322H99.7863C100.103 24.322 100.363 24.0621 100.363 23.7446V5.74887H100.36C100.343 5.44569 100.093 5.20287 99.7863 5.20287H97.2508C96.9441 5.20287 96.6937 5.44569 96.6766 5.74887H96.6736V7.21112C95.12 5.29625 92.6708 4.50146 90.2147 4.50146C84.632 4.50146 80.1064 9.03061 80.1064 14.618C80.1064 20.2056 84.632 24.735 90.2147 24.735V24.7354C92.6708 24.7354 95.3475 23.7818 96.6734 22.026L96.6736 22.0283ZM90.2246 21.1942C86.6742 21.1942 83.7957 18.2503 83.7957 14.618C83.7957 10.9864 86.6742 8.04221 90.2246 8.04221C93.7753 8.04221 96.6533 10.9864 96.6533 14.618C96.6533 18.2503 93.7753 21.1942 90.2246 21.1942Z" fill="#292929"/>
<path fill-rule="evenodd" clip-rule="evenodd" d="M65.1118 19.4507C66.8044 20.6242 68.652 21.1942 70.4275 21.1942C72.1189 21.1942 73.8676 20.3166 73.8676 18.7891C73.8676 16.7499 70.0573 16.4326 67.6633 15.6184C65.2688 14.8041 63.2065 13.1208 63.2065 10.3949C63.2065 6.22372 66.9202 4.50098 70.3864 4.50098C72.5826 4.50098 74.8485 5.22574 76.3176 6.26396C76.8235 6.64761 76.5154 7.08808 76.5154 7.08808L75.1131 9.09249C74.9555 9.31826 74.6798 9.51331 74.2843 9.26896C73.8887 9.02477 72.5011 8.04183 70.3864 8.04183C68.2715 8.04183 66.9976 9.01923 66.9976 10.2307C66.9976 11.6834 68.6533 12.1403 70.5926 12.6355C73.9721 13.5471 77.6587 14.6429 77.6587 18.7891C77.6587 22.4643 74.2238 24.7355 70.4275 24.7355C67.5506 24.7355 65.1013 23.9147 63.047 22.4061C62.619 21.9775 62.9179 21.5794 62.9179 21.5794L64.3134 19.5852C64.5973 19.2124 64.9553 19.3424 65.1118 19.4507Z" fill="#292929"/>
<path fill-rule="evenodd" clip-rule="evenodd" d="M55.3647 22.0283C55.4533 23.0375 56.2606 24.322 57.659 24.322H58.4773C58.7945 24.322 59.0545 24.0621 59.0545 23.7446V5.74887H59.0509C59.0343 5.44569 58.7838 5.20287 58.4773 5.20287H55.9418C55.6352 5.20287 55.3847 5.44569 55.3677 5.74887H55.3647V7.21112C53.8112 5.29625 51.362 4.50146 48.9059 4.50146C43.3231 4.50146 38.7974 9.03061 38.7974 14.618C38.7974 20.2056 43.3231 24.735 48.9059 24.735V24.7354C51.362 24.7354 54.0386 23.7818 55.3643 22.026L55.3647 22.0283ZM48.9158 21.1942C45.3651 21.1942 42.4867 18.2503 42.4867 14.618C42.4867 10.9864 45.3651 8.04221 48.9158 8.04221C52.4662 8.04221 55.3444 10.9864 55.3444 14.618C55.3444 18.2503 52.4662 21.1942 48.9158 21.1942Z" fill="#292929"/>
<path fill-rule="evenodd" clip-rule="evenodd" d="M24.6258 15.306C20.8689 15.306 17.8231 18.3516 17.8231 22.1089C17.8231 25.8659 20.8689 28.9116 24.6258 28.9116C28.3828 28.9116 31.4284 25.8659 31.4284 22.1089C31.4284 18.3516 28.3828 15.306 24.6258 15.306ZM6.95204 15.3066C3.19509 15.3066 0.149414 18.3516 0.149414 22.1089C0.149414 25.8659 3.19509 28.9116 6.95204 28.9116C10.7092 28.9116 13.755 25.8659 13.755 22.1089C13.755 18.3516 10.7092 15.3066 6.95204 15.3066ZM22.5915 6.80249C22.5915 10.5598 19.546 13.6057 15.7889 13.6057C12.0318 13.6057 8.98633 10.5598 8.98633 6.80249C8.98633 3.04598 12.0318 0 15.7889 0C19.546 0 22.5915 3.04598 22.5915 6.80249Z" fill="#666666"/>
</g>
<defs>
<clipPath id="clip0_102_142">
<rect width="147.712" height="29.0148" fill="white" transform="translate(0.149414)"/>
</clipPath>
</defs>
</svg>
