<svg width="151" height="29" viewBox="0 0 151 29" fill="none" xmlns="http://www.w3.org/2000/svg">
<path fill-rule="evenodd" clip-rule="evenodd" d="M15.3613 29C23.3695 29 29.8613 22.5081 29.8613 14.5C29.8613 6.49188 23.3695 0 15.3613 0C7.35318 0 0.861328 6.49188 0.861328 14.5C0.861328 22.5081 7.35318 29 15.3613 29ZM19.8848 6.75471C20.105 5.97259 19.346 5.5101 18.6528 6.00395L8.97633 12.8974C8.22458 13.433 8.34283 14.5 9.15396 14.5H11.702V14.4803H16.6681L12.6217 15.908L10.8378 22.2453C10.6177 23.0274 11.3766 23.4899 12.0698 22.9961L21.7463 16.1026C22.4981 15.567 22.3798 14.5 21.5687 14.5H17.7046L19.8848 6.75471Z" fill="#666666"/>
<path d="M38.8613 24.5962V21.25H41.5757V7.75H38.8613V4.40385H49.4828C50.7417 4.40385 51.8333 4.61538 52.7578 5.03846C53.7019 5.44231 54.4297 6.02885 54.9411 6.79808C55.4722 7.54808 55.7377 8.45192 55.7377 9.50962V9.79808C55.7377 10.7212 55.5607 11.4808 55.2066 12.0769C54.8526 12.6538 54.4297 13.1058 53.9379 13.4327C53.4659 13.7404 53.0135 13.9615 52.5808 14.0962V14.6154C53.0135 14.7308 53.4855 14.9519 53.9969 15.2788C54.5084 15.5865 54.9411 16.0385 55.2951 16.6346C55.6689 17.2308 55.8557 18.0096 55.8557 18.9712V19.2596C55.8557 20.375 55.5902 21.3365 55.0591 22.1442C54.528 22.9327 53.7904 23.5385 52.8463 23.9615C51.9218 24.3846 50.84 24.5962 49.6008 24.5962H38.8613ZM45.4703 21.1346H49.1288C49.9746 21.1346 50.6531 20.9327 51.1646 20.5288C51.6956 20.125 51.9612 19.5481 51.9612 18.7981V18.5096C51.9612 17.7596 51.7055 17.1827 51.1941 16.7788C50.6827 16.375 49.9942 16.1731 49.1288 16.1731H45.4703V21.1346ZM45.4703 12.7115H49.0698C49.8762 12.7115 50.5351 12.5096 51.0465 12.1058C51.5776 11.7019 51.8431 11.1442 51.8431 10.4327V10.1442C51.8431 9.41346 51.5874 8.85577 51.076 8.47115C50.5646 8.06731 49.8959 7.86538 49.0698 7.86538H45.4703V12.7115Z" fill="#292929"/>
<path d="M64.6498 25C63.1942 25 61.8862 24.7115 60.7257 24.1346C59.5652 23.5577 58.6506 22.7212 57.9819 21.625C57.3131 20.5288 56.9787 19.2115 56.9787 17.6731V17.2115C56.9787 15.6731 57.3131 14.3558 57.9819 13.2596C58.6506 12.1635 59.5652 11.3269 60.7257 10.75C61.8862 10.1731 63.1942 9.88462 64.6498 9.88462C66.1053 9.88462 67.4133 10.1731 68.5738 10.75C69.7343 11.3269 70.649 12.1635 71.3177 13.2596C71.9865 14.3558 72.3209 15.6731 72.3209 17.2115V17.6731C72.3209 19.2115 71.9865 20.5288 71.3177 21.625C70.649 22.7212 69.7343 23.5577 68.5738 24.1346C67.4133 24.7115 66.1053 25 64.6498 25ZM64.6498 21.7692C65.7906 21.7692 66.7347 21.4135 67.4822 20.7019C68.2296 19.9712 68.6033 18.9327 68.6033 17.5865V17.2981C68.6033 15.9519 68.2296 14.9231 67.4822 14.2115C66.7544 13.4808 65.8103 13.1154 64.6498 13.1154C63.509 13.1154 62.5648 13.4808 61.8174 14.2115C61.07 14.9231 60.6962 15.9519 60.6962 17.2981V17.5865C60.6962 18.9327 61.07 19.9712 61.8174 20.7019C62.5648 21.4135 63.509 21.7692 64.6498 21.7692Z" fill="#292929"/>
<path d="M74.2771 24.5962V4.40385H77.9946V24.5962H74.2771Z" fill="#292929"/>
<path d="M86.2447 24.5962C85.2809 24.5962 84.4942 24.3077 83.8844 23.7308C83.2943 23.1346 82.9993 22.3462 82.9993 21.3654V13.2885H79.3408V10.2885H82.9993V5.84615H86.7168V10.2885H90.7294V13.2885H86.7168V20.7308C86.7168 21.3077 86.9922 21.5962 87.5429 21.5962H90.3753V24.5962H86.2447Z" fill="#292929"/>
<path d="M98.6971 25C96.7892 25 95.2254 24.5962 94.0059 23.7885C92.7864 22.9808 92.0488 21.8269 91.7931 20.3269L95.2156 19.4615C95.3533 20.1346 95.5795 20.6635 95.8942 21.0481C96.2286 21.4327 96.6318 21.7115 97.1039 21.8846C97.5956 22.0385 98.1267 22.1154 98.6971 22.1154C99.5625 22.1154 100.202 21.9712 100.615 21.6827C101.028 21.375 101.234 21 101.234 20.5577C101.234 20.1154 101.038 19.7788 100.644 19.5481C100.251 19.2981 99.6216 19.0962 98.7561 18.9423L97.93 18.7981C96.9072 18.6058 95.9729 18.3462 95.1271 18.0192C94.2813 17.6731 93.6027 17.2019 93.0913 16.6058C92.5799 16.0096 92.3242 15.2404 92.3242 14.2981C92.3242 12.875 92.8553 11.7885 93.9174 11.0385C94.9796 10.2692 96.3761 9.88462 98.107 9.88462C99.7396 9.88462 101.097 10.2404 102.179 10.9519C103.26 11.6635 103.969 12.5962 104.303 13.75L100.851 14.7885C100.694 14.0577 100.369 13.5385 99.8773 13.2308C99.4052 12.9231 98.8151 12.7692 98.107 12.7692C97.3989 12.7692 96.858 12.8942 96.4843 13.1442C96.1106 13.375 95.9237 13.7019 95.9237 14.125C95.9237 14.5865 96.1204 14.9327 96.5138 15.1635C96.9072 15.375 97.4382 15.5385 98.107 15.6538L98.9331 15.7981C100.035 15.9904 101.028 16.25 101.913 16.5769C102.818 16.8846 103.526 17.3365 104.037 17.9327C104.568 18.5096 104.834 19.2981 104.834 20.2981C104.834 21.7981 104.273 22.9615 103.152 23.7885C102.051 24.5962 100.566 25 98.6971 25Z" fill="#292929"/>
<path d="M106.616 24.5962V4.40385H110.334V12.0481H110.865C111.022 11.7404 111.268 11.4327 111.603 11.125C111.937 10.8173 112.38 10.5673 112.93 10.375C113.501 10.1635 114.219 10.0577 115.084 10.0577C116.225 10.0577 117.218 10.3173 118.064 10.8365C118.929 11.3365 119.598 12.0385 120.07 12.9423C120.542 13.8269 120.778 14.8654 120.778 16.0577V24.5962H117.061V16.3462C117.061 15.2692 116.786 14.4615 116.235 13.9231C115.704 13.3846 114.937 13.1154 113.933 13.1154C112.793 13.1154 111.908 13.4904 111.278 14.2404C110.649 14.9712 110.334 16 110.334 17.3269V24.5962H106.616Z" fill="#292929"/>
<path d="M123.322 24.5962V10.2885H127.039V24.5962H123.322ZM125.181 8.61539C124.512 8.61539 123.942 8.40385 123.47 7.98077C123.017 7.55769 122.791 7 122.791 6.30769C122.791 5.61539 123.017 5.05769 123.47 4.63462C123.942 4.21154 124.512 4 125.181 4C125.869 4 126.44 4.21154 126.892 4.63462C127.344 5.05769 127.571 5.61539 127.571 6.30769C127.571 7 127.344 7.55769 126.892 7.98077C126.44 8.40385 125.869 8.61539 125.181 8.61539Z" fill="#292929"/>
<path d="M132.103 24.5962V13.2885H128.386V10.2885H132.103V7.63462C132.103 6.65385 132.398 5.875 132.988 5.29808C133.598 4.70192 134.385 4.40385 135.349 4.40385H139.184V7.40385H136.647C136.096 7.40385 135.821 7.69231 135.821 8.26923V10.2885H139.656V13.2885H135.821V24.5962H132.103Z" fill="#292929"/>
<path d="M146.377 24.5962C145.413 24.5962 144.626 24.3077 144.016 23.7308C143.426 23.1346 143.131 22.3462 143.131 21.3654V13.2885H139.473V10.2885H143.131V5.84615H146.849V10.2885H150.861V13.2885H146.849V20.7308C146.849 21.3077 147.124 21.5962 147.675 21.5962H150.507V24.5962H146.377Z" fill="#292929"/>
</svg>
