<svg width="133" height="30" viewBox="0 0 133 30" fill="none" xmlns="http://www.w3.org/2000/svg">
<path d="M57.2246 10.3037C56.7772 9.68937 56.1583 9.22087 55.4456 8.95719C54.7139 8.66342 53.9985 8.51653 53.2994 8.51653C52.4063 8.51653 51.593 8.67974 50.8622 9.00616C50.1441 9.32287 49.4972 9.78076 48.9599 10.3526C48.4307 10.939 48.0172 11.6201 47.7412 12.3601C47.4591 13.1621 47.3189 14.0071 47.3269 14.8572C47.3269 15.8038 47.4647 16.6688 47.7412 17.4522C47.9962 18.1985 48.3934 18.8883 48.9109 19.4833C49.4324 20.0395 50.0633 20.4816 50.7642 20.7817C51.4796 21.0918 52.2839 21.2468 53.1779 21.2468C54.1046 21.2468 54.9252 21.0673 55.6406 20.7082C56.355 20.3329 56.9326 19.8432 57.3715 19.2394L59.8341 20.9775C59.0819 21.931 58.123 22.7012 57.0296 23.2298C55.9244 23.7521 54.6323 24.0132 53.1534 24.0132C51.8042 24.0132 50.5611 23.7929 49.4232 23.3513C48.3412 22.9207 47.3552 22.2804 46.5217 21.4672C45.7023 20.6402 45.0563 19.6582 44.6212 18.5784C44.1661 17.4522 43.9385 16.2118 43.9385 14.8572C43.9385 13.4699 44.1742 12.2214 44.6457 11.1116C45.1335 9.98541 45.7918 9.03064 46.6205 8.24633C47.4829 7.45277 48.4936 6.83738 49.5946 6.43562C50.7325 6.01131 51.9684 5.79914 53.3003 5.79914C53.8534 5.79914 54.4301 5.85626 55.0321 5.97051C55.6333 6.06843 56.2109 6.23164 56.7631 6.4601C57.3162 6.67227 57.8357 6.94066 58.3226 7.26707C58.8104 7.59349 59.2248 7.9861 59.5666 8.44309L57.2246 10.3037ZM61.6448 5.0647H64.5708V23.5726H61.6448V5.0647ZM76.3599 16.5219C76.3599 16.1465 76.3037 15.7875 76.1895 15.4447C76.0964 15.11 75.9298 14.8002 75.7017 14.538C75.4611 14.2683 75.1604 14.0589 74.8239 13.9269C74.483 13.7637 74.0768 13.6821 73.6053 13.6821C72.7276 13.6821 71.9796 13.9514 71.3621 14.4891C70.761 15.0122 70.4282 15.6896 70.3629 16.5219H76.3599ZM79.2859 17.8439V18.2356C79.2859 18.3662 79.2777 18.4968 79.2614 18.6273H70.3629C70.3955 19.0517 70.5007 19.4434 70.6803 19.8024C70.8743 20.1452 71.1264 20.4462 71.4356 20.7082C71.7438 20.953 72.0938 21.1489 72.4837 21.2958C72.8736 21.4427 73.2798 21.5161 73.7032 21.5161C74.4341 21.5161 75.0515 21.3856 75.5557 21.1244C76.0532 20.8526 76.4793 20.4667 76.7988 19.9983L78.7491 21.5651C77.5958 23.1319 75.9211 23.9153 73.7268 23.9153C72.8174 23.9153 71.9796 23.7766 71.2152 23.4982C70.4776 23.2203 69.7995 22.8049 69.2168 22.2741C68.6521 21.7346 68.204 21.0851 67.9003 20.3655C67.592 19.5984 67.4378 18.7334 67.4378 17.7705C67.4378 16.8239 67.592 15.9661 67.9003 15.1999C68.2258 14.4165 68.6646 13.7555 69.2168 13.2169C69.7709 12.6611 70.4353 12.2274 71.1672 11.9439C71.9499 11.6302 72.7865 11.4722 73.6298 11.4788C74.4422 11.4788 75.1894 11.6175 75.873 11.895C76.56 12.1481 77.1781 12.559 77.6774 13.0945C78.1806 13.6168 78.5705 14.2778 78.847 15.0775C79.1399 15.8609 79.2859 16.7822 79.2859 17.843V17.8439ZM89.2416 22.0783H89.1691C88.8762 22.6015 88.4047 23.034 87.7546 23.3767C87.1045 23.7031 86.3646 23.8663 85.5359 23.8663C85.0644 23.8663 84.5693 23.801 84.0489 23.6705C83.5472 23.5572 83.0687 23.3585 82.6344 23.0829C82.2056 22.7825 81.8409 22.3997 81.5618 21.9568C81.2852 21.4835 81.1474 20.9041 81.1474 20.2186C81.1474 19.3373 81.3913 18.6355 81.8791 18.1132C82.3832 17.5909 83.0252 17.1911 83.805 16.9136C84.5847 16.6362 85.4461 16.4566 86.3891 16.375C87.3205 16.2786 88.2562 16.2295 89.1927 16.2281V15.9344C89.1927 15.1999 88.9252 14.6613 88.3884 14.3186C87.868 13.9595 87.2423 13.78 86.5115 13.78C85.8968 13.7793 85.2893 13.9129 84.7316 14.1717C84.1622 14.4329 83.6907 14.7511 83.3172 15.1265L81.8057 13.3394C82.4664 12.7223 83.2464 12.2471 84.0978 11.943C84.9503 11.6377 85.8489 11.4807 86.7545 11.4788C87.7954 11.4788 88.6487 11.6257 89.3151 11.9194C89.9978 12.2132 90.5337 12.5968 90.9236 13.0701C91.3135 13.5434 91.5819 14.0738 91.7288 14.6613C91.8911 15.2489 91.9727 15.8364 91.9727 16.424V23.5726H89.2407V22.0783H89.2416ZM89.1927 18.2111H88.5344C88.0629 18.2111 87.5678 18.2356 87.0474 18.2837C86.5583 18.3108 86.0748 18.4016 85.6093 18.5539C85.1705 18.6844 84.8042 18.8803 84.5122 19.1414C84.2193 19.3862 84.0734 19.729 84.0734 20.1696C84.0734 20.4471 84.1305 20.6838 84.2438 20.8796C84.3735 21.0591 84.5367 21.206 84.7316 21.3203C84.9266 21.4345 85.146 21.5161 85.3899 21.5651C85.6338 21.614 85.8777 21.6376 86.1207 21.6376C87.129 21.6376 87.8924 21.3692 88.4129 20.8306C88.9334 20.2921 89.1927 19.5576 89.1927 18.6273V18.2102V18.2111ZM95.381 11.8215H98.1846V13.78H98.2335C98.5391 13.1178 99.0097 12.5449 99.5991 12.1153C100.184 11.6909 100.867 11.4788 101.646 11.4788C101.761 11.4788 101.882 11.4869 102.012 11.5033C102.142 11.5033 102.257 11.5196 102.354 11.5522V14.2452C102.185 14.2013 102.014 14.1685 101.841 14.1472C101.712 14.131 101.582 14.1228 101.451 14.1228C100.785 14.1228 100.248 14.2452 99.8421 14.49C99.4631 14.7091 99.1385 15.0102 98.8918 15.3713C98.6742 15.6906 98.5173 16.0472 98.4285 16.4231C98.3469 16.7831 98.3061 17.0687 98.3061 17.2808V23.5726H95.381V11.8215ZM107.235 5.0647V13.3149H107.309C107.456 13.119 107.643 12.915 107.87 12.7028C108.097 12.4907 108.365 12.2948 108.674 12.1153C109.029 11.9238 109.406 11.7758 109.796 11.6746C110.263 11.5379 110.747 11.4719 111.234 11.4788C112.063 11.4788 112.827 11.642 113.526 11.9684C114.224 12.2785 114.826 12.711 115.331 13.265C115.844 13.8359 116.241 14.501 116.5 15.2235C116.781 16.0007 116.922 16.8217 116.915 17.6481C116.92 18.4821 116.78 19.3105 116.5 20.0962C116.252 20.8261 115.863 21.5 115.354 22.0792C114.851 22.6461 114.236 23.1042 113.55 23.4257C112.852 23.7521 112.055 23.9153 111.161 23.9153C110.35 23.9192 109.548 23.7349 108.821 23.3767C108.119 23.0302 107.534 22.4854 107.138 21.8099H107.089V23.5726H104.31V5.0647H107.236H107.235ZM113.941 17.6481C113.941 17.1911 113.868 16.7414 113.721 16.3016C113.598 15.8585 113.391 15.4429 113.112 15.0775C112.832 14.7157 112.474 14.4226 112.063 14.2207C111.64 13.9922 111.145 13.8779 110.576 13.8779C110.04 13.8779 109.56 13.9922 109.138 14.2207C108.715 14.4492 108.349 14.7429 108.041 15.102C107.744 15.4678 107.513 15.8819 107.358 16.3261C107.214 16.7689 107.14 17.2314 107.138 17.697C107.138 18.154 107.211 18.611 107.358 19.068C107.521 19.5086 107.748 19.9085 108.041 20.2676C108.349 20.6266 108.715 20.9204 109.138 21.1489C109.56 21.3611 110.04 21.4662 110.576 21.4662C111.145 21.4662 111.64 21.3529 112.063 21.1244C112.471 20.9083 112.829 20.608 113.112 20.2431C113.387 19.884 113.591 19.476 113.721 19.019C113.865 18.5763 113.939 18.1138 113.941 17.6481ZM119.786 11.8215H122.711V23.5726H119.786V11.8215ZM119.371 7.83105C119.371 7.35775 119.541 6.94972 119.882 6.60698C120.24 6.24796 120.687 6.06843 121.224 6.06843C121.759 6.06843 122.207 6.2398 122.564 6.5825C122.938 6.90892 123.125 7.3251 123.125 7.83105C123.125 8.337 122.938 8.76134 122.564 9.10408C122.207 9.4305 121.76 9.59371 121.223 9.59371C120.687 9.59371 120.24 9.42143 119.882 9.0796C119.719 8.91548 119.589 8.72063 119.502 8.50637C119.414 8.29212 119.37 8.06263 119.371 7.83105ZM124.578 14.1717V11.8215H126.627V8.4186H129.503V11.8215H132.428V14.1717H129.503V19.6302C129.503 20.1533 129.592 20.5858 129.771 20.9286C129.966 21.2713 130.388 21.4427 131.039 21.4427C131.233 21.4427 131.445 21.4264 131.672 21.3937C131.899 21.3448 132.103 21.2795 132.282 21.1979L132.38 23.4991C132.079 23.6066 131.769 23.6805 131.453 23.7194C131.096 23.7847 130.755 23.8174 130.428 23.8174C129.649 23.8174 129.015 23.7113 128.527 23.4991C128.04 23.2706 127.649 22.9687 127.357 22.5924C127.078 22.1943 126.879 21.7456 126.772 21.2713C126.672 20.7386 126.624 20.1976 126.626 19.6555V14.1717H124.577H124.578Z" fill="#292929"/>
<g filter="url(#filter0_f_102_158)">
<path d="M22.5854 29.0148H9.12429L8.57482 29.0105C6.30186 28.9735 5.39778 28.6966 4.48683 28.2074C3.50583 27.6806 2.73593 26.9075 2.21128 25.9225L2.10261 25.7108C1.66561 24.8244 1.42608 23.8462 1.4083 21.548L1.40723 7.74907C1.40723 5.05452 1.68662 4.07742 2.21128 3.09236C2.73593 2.10729 3.50583 1.3342 4.48683 0.807376L4.69755 0.698271C5.58027 0.259457 6.5545 0.0189231 8.8433 0.00106986L22.5854 0C25.2687 0 26.2418 0.280556 27.2228 0.807376C28.2039 1.3342 28.9738 2.10729 29.4984 3.09236L29.607 3.30395C30.044 4.19032 30.2836 5.16857 30.3014 7.46681L30.3025 21.2658L30.2982 21.8175C30.2613 24.0999 29.9856 25.0078 29.4984 25.9225C28.9738 26.9075 28.2039 27.6806 27.2228 28.2074L27.0121 28.3166C26.0941 28.7729 25.0771 29.0148 22.5854 29.0148Z" fill="#C4D3E0" fill-opacity="0.2"/>
</g>
<path d="M30.3021 14.5073V21.2657C30.3021 23.9602 30.0227 24.9373 29.498 25.9223C28.9734 26.9075 28.2035 27.6806 27.2224 28.2074C26.2415 28.7342 25.2684 29.0147 22.585 29.0147H15.8545V14.5073H30.3021Z" fill="url(#paint0_linear_102_158)"/>
<path d="M15.8545 0H22.585C25.2684 0 26.2415 0.280556 27.2224 0.807376C28.2035 1.3342 28.9734 2.10728 29.498 3.09236C30.0227 4.07742 30.3021 5.05452 30.3021 7.74898V14.5074H15.8545V0Z" fill="url(#paint1_linear_102_158)"/>
<path d="M9.12429 0H15.8548V29.0148H9.12429C6.44092 29.0148 5.46785 28.7342 4.48683 28.2074C3.50583 27.6806 2.73593 26.9075 2.21128 25.9225C1.68662 24.9373 1.40723 23.9602 1.40723 21.2658V7.74907C1.40723 5.05452 1.68662 4.07742 2.21128 3.09236C2.73593 2.10729 3.50583 1.3342 4.48683 0.807376C5.46785 0.280556 6.44092 0 9.12429 0Z" fill="url(#paint2_linear_102_158)"/>
<defs>
<filter id="filter0_f_102_158" x="0.882205" y="-0.525021" width="29.9451" height="30.0649" filterUnits="userSpaceOnUse" color-interpolation-filters="sRGB">
<feFlood flood-opacity="0" result="BackgroundImageFix"/>
<feBlend mode="normal" in="SourceGraphic" in2="BackgroundImageFix" result="shape"/>
<feGaussianBlur stdDeviation="0.262511" result="effect1_foregroundBlur_102_158"/>
</filter>
<linearGradient id="paint0_linear_102_158" x1="23.0783" y1="14.5073" x2="30.3499" y2="28.9907" gradientUnits="userSpaceOnUse">
<stop stop-color="#888888"/>
<stop offset="1" stop-color="#8A8A8A"/>
</linearGradient>
<linearGradient id="paint1_linear_102_158" x1="15.8545" y1="0" x2="23.1262" y2="14.4833" gradientUnits="userSpaceOnUse">
<stop stop-color="#666666"/>
<stop offset="1" stop-color="#666666"/>
</linearGradient>
<linearGradient id="paint2_linear_102_158" x1="6.82508" y1="-3.22168e-07" x2="19.1868" y2="24.6217" gradientUnits="userSpaceOnUse">
<stop stop-color="#292929"/>
<stop offset="1" stop-color="#292929"/>
</linearGradient>
</defs>
</svg>
