<svg width="130" height="30" viewBox="0 0 130 30" fill="none" xmlns="http://www.w3.org/2000/svg">
<g clip-path="url(#clip0_102_157)">
<path d="M83.6422 20.0816C80.9517 20.0816 79.5701 17.8664 79.5701 15.1455C79.5701 12.4246 80.9275 10.3298 83.6422 10.3298C86.4054 10.3298 87.7148 12.5209 87.7148 15.1455C87.6905 17.9145 86.3089 20.0816 83.6422 20.0816ZM57.3178 10.3298C58.8931 10.3298 59.5477 11.2448 59.5477 12.0394C59.5477 13.9656 57.5842 14.8084 53.4879 14.9288C53.4879 12.545 54.8452 10.3298 57.3178 10.3298ZM39.8648 20.0816C37.3196 20.0816 36.2531 18.0109 36.2531 15.1455C36.2531 12.3042 37.3439 10.3298 39.8648 10.3298C42.4343 10.3298 43.6463 12.3765 43.6463 15.1455C43.6463 18.0349 42.3858 20.0816 39.8648 20.0816ZM18.3397 7.51257H14.3643L20.9576 22.634C19.6971 25.4271 19.0184 26.1254 18.1457 26.1254C17.2247 26.1254 16.352 25.379 15.7217 24.7288L13.9765 27.0404C15.1642 28.2925 16.7883 29.0148 18.4609 29.0148C20.5455 29.0148 22.1454 27.8109 23.0665 25.6438L30.6779 7.48846H26.7752L22.7999 18.3239L18.3397 7.51257ZM123.638 10.3298C125.578 10.3298 125.965 11.6541 125.965 14.7603V22.9229H129.408V12.6172C129.408 8.90913 126.862 7.29586 124.511 7.29586C122.427 7.29586 120.512 8.59609 119.445 11.004C118.839 8.69242 116.899 7.29586 114.645 7.29586C112.682 7.29586 110.718 8.54793 109.652 10.8836V7.51257H106.21V22.8988H109.652V16.3254C109.652 13.0025 111.397 10.3298 113.773 10.3298C115.712 10.3298 116.075 11.6541 116.075 14.7603V22.9229H119.518L119.493 16.3254C119.493 13.0025 121.263 10.3298 123.638 10.3298ZM96.1724 7.51257H94.4294V22.8988H97.8711V16.9996C97.8711 13.2674 99.5196 10.7391 101.968 10.7391C102.598 10.7391 103.131 10.7632 103.713 11.004L104.246 7.36808C103.81 7.31991 103.422 7.27175 103.034 7.27175C100.611 7.27175 98.8649 8.93319 97.8468 11.0762V7.51257H96.1724ZM83.6422 7.27175C79.0853 7.27175 76.0065 10.7391 76.0065 15.1214C76.0065 19.6723 79.1338 23.0674 83.6422 23.0674C88.2239 23.0674 91.3506 19.576 91.3506 15.1214C91.3264 10.715 88.1511 7.27175 83.6422 7.27175ZM57.5114 20.0816C55.7178 20.0816 54.3847 19.1667 53.8271 17.3126C58.384 17.12 62.8444 16.0123 62.8444 11.9912C62.8444 9.67961 60.5659 7.29586 57.2936 7.29586C52.8817 7.29586 49.9002 10.8836 49.9002 15.1455C49.9002 19.6 52.8332 23.0915 57.2208 23.0915C60.2747 23.0915 62.2139 21.8635 63.7412 20.0816L62.0689 17.8182C60.299 19.6242 59.2085 20.0816 57.5114 20.0816ZM40.5436 7.27175C38.7983 7.27175 37.053 8.28305 36.3743 9.87227V7.51257H32.9322V28.9426H36.3743V21.2855C37.1015 22.3932 38.774 23.1155 40.2527 23.1155C44.8341 23.1155 47.2581 19.7204 47.2581 15.1455C47.2338 10.6187 44.8583 7.27175 40.5436 7.27175ZM16.4005 1.34841H0.159668V4.69535H6.51054V22.8988H10.1223V4.69535H16.4005V1.34841ZM67.5711 7.51257H65.5106V10.5946H67.5711V22.8988H71.0134V10.5946H74.3585V7.51257H71.0134V5.10468C71.0134 3.56365 71.6438 3.03392 73.0739 3.03392C73.6067 3.03392 74.0916 3.17839 74.7462 3.39509L75.5217 0.505652C74.8918 0.144472 73.631 0 72.807 0C69.5104 0 67.5711 1.97445 67.5711 5.39365V7.51257Z" fill="#292929"/>
</g>
<defs>
<clipPath id="clip0_102_157">
<rect width="129.248" height="29.0148" fill="white" transform="translate(0.159668)"/>
</clipPath>
</defs>
</svg>
