<svg width="174" height="29" viewBox="0 0 174 29" fill="none" xmlns="http://www.w3.org/2000/svg">
<path d="M20.2151 0H9.10426L0.159668 8.94457V20.0554L9.10426 29H20.2151L29.1597 20.0554V8.94457L20.2151 0ZM10.6416 20.1952L4.91149 14.465L10.6416 8.73494C12.8079 6.56868 16.3717 6.56868 18.538 8.73494L24.2681 14.465L18.538 20.1952C16.3717 22.3614 12.8777 22.3614 10.6416 20.1952Z" fill="#666666"/>
<path d="M47.8647 25C50.4039 25 52.4916 23.6785 53.1405 21.6963V24.7702H56.8927V17.0137C56.8927 15.2613 55.5385 13.7674 53.7047 13.7674H48.3444V17.0137H52.153C52.6326 17.0137 52.943 17.3297 52.943 17.8181C52.943 19.6854 50.5167 21.4952 48.0622 21.4952C44.7896 21.4952 42.194 18.881 42.194 14.7155C42.194 10.5499 44.7896 8.1368 48.1469 8.1368C50.686 8.1368 52.4352 9.54446 52.7455 11.699H56.9491C56.6952 7.38988 53.1405 4.43092 48.1751 4.43092C42.9558 4.43092 38.1597 7.84952 38.1597 14.7155C38.1597 21.5814 42.8147 25 47.8647 25Z" fill="#292929"/>
<path d="M58.5035 24.7702H62.425V4H58.5035V24.7702Z" fill="#292929"/>
<path d="M70.8841 25C75.257 25 78.3886 21.8399 78.3886 17.5308C78.3886 13.2216 75.257 10.0616 70.8841 10.0616C66.5112 10.0616 63.3796 13.2216 63.3796 17.5308C63.3796 21.8399 66.5112 25 70.8841 25ZM70.8841 21.5527C68.7682 21.5527 67.3293 19.9152 67.3293 17.5308C67.3293 15.1176 68.7682 13.4802 70.8841 13.4802C73 13.4802 74.4389 15.1176 74.4389 17.5308C74.4389 19.9152 73 21.5527 70.8841 21.5527Z" fill="#292929"/>
<path d="M87.1636 25C91.3672 25 93.8781 22.041 93.8781 17.5308C93.8781 13.0205 91.3672 10.0616 87.22 10.0616C85.4426 10.0616 84.0602 10.751 83.2702 11.814V4H79.3487V24.7702H83.2702V23.1902C84.0602 24.3105 85.5272 25 87.1636 25ZM86.5429 21.5527C84.427 21.5527 83.0445 19.9439 83.0445 17.5308C83.0445 15.0889 84.427 13.4802 86.5429 13.4802C88.6024 13.4802 90.013 15.0889 90.013 17.5308C90.013 19.9439 88.6024 21.5527 86.5429 21.5527Z" fill="#292929"/>
<path d="M100.443 10.0616C96.5493 10.0616 94.2358 12.3885 94.0666 15.29H97.5649C97.6213 14.0834 98.4959 12.9918 100.217 12.9918C101.825 12.9918 102.756 13.8249 102.756 15.0315C102.756 15.6347 102.389 16.0944 101.684 16.0944H99.2859C96.1825 16.0944 94.0948 17.8181 94.0948 20.6621C94.0948 23.1327 95.985 25 98.7498 25C100.696 25 102.276 24.1094 102.756 22.7592V24.7702H106.649V15.4624C106.649 12.1874 104.026 10.0616 100.443 10.0616ZM99.7373 22.0985C98.637 22.0985 97.847 21.4378 97.847 20.4897C97.847 19.3694 98.6934 18.6224 99.8783 18.6224H102.756V18.8235C102.756 20.6621 101.656 22.0985 99.7373 22.0985Z" fill="#292929"/>
<path d="M108.156 24.7702H112.078V4H108.156V24.7702Z" fill="#292929"/>
<path d="M114.161 24.7702H122.23C126.405 24.7702 129.283 22.5869 129.283 18.7661C129.283 16.1231 127.759 14.5144 125.954 13.7962C127.11 13.1642 128.267 11.7278 128.267 9.83174C128.267 6.47059 125.587 4.66074 122.004 4.66074H114.161V24.7702ZM118.336 12.3311V8.07934H121.609C123.499 8.07934 124.346 8.85499 124.346 10.2052C124.346 11.5554 123.499 12.3311 121.694 12.3311H118.336ZM118.336 21.0356V15.9795H121.863C124.204 15.9795 125.248 16.8988 125.248 18.5363C125.248 20.1737 124.204 21.0356 121.863 21.0356H118.336Z" fill="#292929"/>
<path d="M136.105 10.0616C132.212 10.0616 129.898 12.3885 129.729 15.29H133.227C133.284 14.0834 134.158 12.9918 135.879 12.9918C137.487 12.9918 138.418 13.8249 138.418 15.0315C138.418 15.6347 138.052 16.0944 137.346 16.0944H134.948C131.845 16.0944 129.757 17.8181 129.757 20.6621C129.757 23.1327 131.647 25 134.412 25C136.359 25 137.939 24.1094 138.418 22.7592V24.7702H142.312V15.4624C142.312 12.1874 139.688 10.0616 136.105 10.0616ZM135.4 22.0985C134.299 22.0985 133.509 21.4378 133.509 20.4897C133.509 19.3694 134.356 18.6224 135.541 18.6224H138.418V18.8235C138.418 20.6621 137.318 22.0985 135.4 22.0985Z" fill="#292929"/>
<path d="M143.593 24.7702H147.543V16.8413C147.543 14.974 148.756 13.6238 150.477 13.6238C152.113 13.6238 153.213 14.8878 153.213 16.6402V24.7702H157.163V15.7497C157.163 12.4172 155.075 10.0616 151.859 10.0616C149.912 10.0616 148.333 10.8947 147.543 12.3023V10.2914H143.593V24.7702Z" fill="#292929"/>
<path d="M168.42 24.7702H173.16L167.038 15.9795L172.708 10.2914H167.743L162.806 15.2326V4H158.856V24.7702H162.806V20.2312L164.386 18.6512L168.42 24.7702Z" fill="#292929"/>
</svg>
