<svg width="166" height="30" viewBox="0 0 166 30" fill="none" xmlns="http://www.w3.org/2000/svg">
<path fill-rule="evenodd" clip-rule="evenodd" d="M57.1088 18.493C57.7946 16.958 59.2322 15.9128 61.1274 15.9128C63.0227 15.9128 64.4277 16.7946 65.0157 18.493H57.1088ZM69.5245 20.4528C69.5245 15.7493 66.0936 11.9933 61.0949 11.9933C56.3898 11.9933 52.5997 15.7819 52.5997 20.4855C52.5997 25.1889 56.1287 28.9776 61.2257 28.9776C64.7557 28.9776 67.2946 27.2755 68.7231 24.8353L65.1728 22.7189C64.4195 24.1636 62.9737 25.0582 61.2582 25.0582C58.9057 25.0582 57.4356 23.8821 56.9127 22.0858H69.5245V20.4528ZM160.654 20.4528C160.654 18.0359 158.889 16.076 156.472 16.076C153.989 16.076 152.094 17.9378 152.094 20.4528C152.094 22.9676 153.989 24.8623 156.472 24.8623C158.889 24.8623 160.654 22.8699 160.654 20.4528ZM147.715 20.4855C147.715 14.7046 151.963 11.9933 155.654 11.9933C157.778 11.9933 159.445 12.7772 160.523 13.9203V4.80774H165V28.6508H160.523V26.8221C159.445 28.0959 157.713 28.9776 155.589 28.9776C152.126 28.9776 147.715 26.2339 147.715 20.4855ZM144.427 9.83441C145.906 9.83441 147.105 8.63605 147.105 7.15768C147.105 5.6793 145.906 4.48096 144.427 4.48096C142.948 4.48096 141.75 5.6793 141.75 7.15768C141.75 8.63605 142.948 9.83441 144.427 9.83441ZM142.189 12.3201H146.665V28.6508H142.189V16.6643L140.565 16.6639L142.189 12.3201ZM130.265 12.3201H134.708V14.9984C135.525 13.3 136.995 12.3201 139.217 12.3201H141.014L139.391 16.6639H138.172C135.787 16.6639 134.741 17.9052 134.741 20.9428V28.6508H130.265V12.3201ZM105.083 16.7294C105.083 9.93554 110.213 4.48096 117.27 4.48096C120.8 4.48096 123.769 5.75167 125.918 7.77662C126.793 8.60055 127.532 9.54965 128.118 10.5889L124.132 13.0058C122.661 10.2947 120.407 8.89025 117.303 8.89025C112.957 8.89025 109.592 12.4507 109.592 16.7294C109.592 21.1062 112.892 24.5681 117.466 24.5681C120.93 24.5681 123.38 22.6086 124.229 19.5709H116.747V15.227H129.13V17.0559C129.13 23.4579 124.556 28.9776 117.466 28.9776C110.017 28.9776 105.083 23.3273 105.083 16.7294ZM99.6872 20.4528C99.6872 18.0359 97.923 16.076 95.5054 16.076C93.0222 16.076 91.1269 17.9378 91.1269 20.4528C91.1269 22.9676 93.0222 24.8623 95.5054 24.8623C97.923 24.8623 99.6872 22.8699 99.6872 20.4528ZM86.7488 20.4855C86.7488 14.7046 90.9961 11.9933 94.6883 11.9933C96.812 11.9933 98.4784 12.7772 99.5567 13.9203V4.80774H104.033V28.6508H99.5567V26.8221C98.4784 28.0959 96.7468 28.9776 94.6231 28.9776C91.1598 28.9776 86.7488 26.2339 86.7488 20.4855ZM70.5709 12.3201H75.0148V14.1491C76.0602 12.8098 77.6614 11.9933 79.5236 11.9933C83.3789 11.9933 85.6988 14.4756 85.6988 18.6889V28.6508H81.1571V19.2768C81.1571 17.0886 80.1443 15.8148 78.1515 15.8148C76.4522 15.8148 75.0474 16.9906 75.0474 19.7341V28.6508H70.5709V12.3201ZM34.0229 24.6989L38.1728 21.4325C39.3488 23.4579 41.2113 24.6336 43.3347 24.6336C45.6549 24.6336 46.8965 23.1313 46.8965 21.4978C46.8965 19.5383 44.511 18.9179 41.9626 18.1336C38.7609 17.1539 35.1994 15.9128 35.1994 11.34C35.1994 7.51862 38.5323 4.48096 43.1389 4.48096C47.0272 4.48096 49.2489 5.9508 51.1768 7.94339L47.4191 10.7849C46.4391 9.31525 45.0342 8.5311 43.1715 8.5311C41.0478 8.5311 39.9046 9.67439 39.9046 11.1768C39.9046 13.0058 42.1915 13.6268 44.7398 14.4756C47.9749 15.5207 51.634 16.958 51.634 21.5308C51.634 25.3194 48.628 28.9776 43.3676 28.9776C39.0551 28.9776 36.1798 27.1488 34.0229 24.6989Z" fill="#292929"/>
<path fill-rule="evenodd" clip-rule="evenodd" d="M9.58789 28.6506H19.1281V19.1138H9.58789V28.6506Z" fill="#888888"/>
<path fill-rule="evenodd" clip-rule="evenodd" d="M0.0478516 19.1142H9.588V9.57715H0.0478516V19.1142Z" fill="#888888"/>
<path fill-rule="evenodd" clip-rule="evenodd" d="M0.0478516 28.6506H9.58799V19.1138H0.0478516V28.6506Z" fill="#292929"/>
<path fill-rule="evenodd" clip-rule="evenodd" d="M19.1279 19.1142H28.6681V9.57715H19.1279V19.1142Z" fill="#1E1E1E"/>
<path fill-rule="evenodd" clip-rule="evenodd" d="M9.58789 9.57765H19.1281V0.0407715H9.58789V9.57765Z" fill="#1E1E1E"/>
<path fill-rule="evenodd" clip-rule="evenodd" d="M9.58789 19.1141H19.1281V9.57715H9.58789V19.1141Z" fill="#666666"/>
<path fill-rule="evenodd" clip-rule="evenodd" d="M19.1279 9.57765H28.6681V0.0407715H19.1279V9.57765Z" fill="#292929"/>
</svg>
